<svg width="21" height="20" viewBox="0 0 21 20" fill="none" xmlns="http://www.w3.org/2000/svg">
<path d="M3 5.39372C3 3.79556 4.29556 2.5 5.89372 2.5H15.1535C16.7256 2.5 18 3.77441 18 5.34647C18 6.18377 17.6314 6.97859 16.9922 7.51943L14.0586 10.0017C13.1229 10.7934 12.5833 11.9569 12.5833 13.1825V14.6664C12.5833 15.3995 12.2325 16.0885 11.6396 16.5197L10.0218 17.6962C9.18039 18.3082 8 17.7071 8 16.6667V13.0829C8 11.915 7.50981 10.8007 6.64885 10.0114L3.93836 7.52683C3.34044 6.97873 3 6.20484 3 5.39372Z" stroke="#0974A2" stroke-width="1.5"/>
</svg>
