<svg width="24" height="24" viewBox="0 0 24 24" fill="none" xmlns="http://www.w3.org/2000/svg">
<path fill-rule="evenodd" clip-rule="evenodd" d="M13.4131 8C11.342 8 9.66309 9.67893 9.66309 11.75C9.66309 13.8211 11.342 15.5 13.4131 15.5C15.4842 15.5 17.1631 13.8211 17.1631 11.75C17.1631 9.67893 15.4842 8 13.4131 8ZM11.1631 11.75C11.1631 10.5074 12.1705 9.5 13.4131 9.5C14.6557 9.5 15.6631 10.5074 15.6631 11.75C15.6631 12.9926 14.6557 14 13.4131 14C12.1705 14 11.1631 12.9926 11.1631 11.75Z" fill="#269200"/>
<path fill-rule="evenodd" clip-rule="evenodd" d="M13.4131 3C11.2721 3 9.33634 4.05899 7.76482 5.34572C6.18472 6.63946 4.8927 8.22865 4.0245 9.43801L3.9529 9.53759C3.43024 10.2638 3 10.8617 3 11.75C3 12.6383 3.43024 13.2362 3.9529 13.9624L4.0245 14.062C4.89271 15.2714 6.18472 16.8605 7.76482 18.1543C9.33634 19.441 11.2721 20.5 13.4131 20.5C15.554 20.5 17.4898 19.441 19.0614 18.1543C20.6415 16.8605 21.9335 15.2714 22.8017 14.062L22.8733 13.9624C23.3959 13.2362 23.8262 12.6383 23.8262 11.75C23.8262 10.8617 23.3959 10.2638 22.8733 9.53759L22.8017 9.43801C21.9335 8.22865 20.6415 6.63946 19.0614 5.34572C17.4898 4.05899 15.554 3 13.4131 3ZM5.24302 10.3128C6.07228 9.15765 7.27657 7.68414 8.71509 6.50631C10.1622 5.32146 11.7673 4.5 13.4131 4.5C15.0589 4.5 16.664 5.32146 18.1111 6.50631C19.5496 7.68414 20.7539 9.15765 21.5832 10.3128C22.2071 11.1819 22.3262 11.3915 22.3262 11.75C22.3262 12.1085 22.2071 12.3181 21.5832 13.1872C20.7539 14.3423 19.5496 15.8159 18.1111 16.9937C16.664 18.1785 15.0589 19 13.4131 19C11.7673 19 10.1622 18.1785 8.71509 16.9937C7.27657 15.8159 6.07229 14.3423 5.24302 13.1872C4.61905 12.3181 4.5 12.1085 4.5 11.75C4.5 11.3915 4.61905 11.1819 5.24302 10.3128Z" fill="#269200"/>
</svg>
