<svg width="24" height="24" viewBox="0 0 24 24" fill="none" xmlns="http://www.w3.org/2000/svg">
<path d="M1.72766 1.81801C1.62719 1.41617 1.21998 1.17186 0.818137 1.27233C0.416293 1.3728 0.171982 1.78001 0.272453 2.18185L1.3243 6.38883L2.3031 10.4728C2.7193 12.2094 3.0469 13.5763 3.43564 14.6382C3.83441 15.7274 4.32341 16.5731 5.10799 17.2215C5.17569 17.2775 5.24468 17.3319 5.31488 17.3847C6.12833 17.9965 7.06465 18.275 8.21684 18.4089C9.34006 18.5394 10.7456 18.5394 12.5313 18.5394H13.1249C14.6699 18.5394 15.8861 18.5394 16.866 18.4403C17.8695 18.3388 18.6953 18.1282 19.4384 17.663C19.7909 17.4423 20.1184 17.184 20.4152 16.8926C21.0011 16.3175 21.3872 15.619 21.7071 14.7499H17.0002C16.5859 14.7499 16.2502 14.4141 16.2502 13.9999C16.2502 13.5857 16.5859 13.2499 17.0002 13.2499H22.17C22.2922 12.7954 22.416 12.2968 22.5484 11.7499L14.0002 11.7499C13.5859 11.7499 13.2502 11.4141 13.2502 10.9999C13.2502 10.5857 13.5859 10.2499 14.0002 10.2499L22.9075 10.2499C23.056 9.61663 23.1725 9.0734 23.2252 8.61247C23.2969 7.98468 23.2677 7.38692 22.9543 6.84113C22.8202 6.60769 22.6527 6.3952 22.4569 6.21045C21.9992 5.77849 21.4247 5.6107 20.7975 5.53416C20.1931 5.46042 19.4253 5.46044 18.4937 5.46046L2.63836 5.46046L1.72766 1.81801Z" fill="#0974A2"/>
<path d="M9.42121 21.9999C10.0026 21.9999 10.4738 21.5287 10.4738 20.9473C10.4738 20.3659 10.0026 19.8947 9.42121 19.8947C8.83986 19.8947 8.36858 20.3659 8.36858 20.9473C8.36858 21.5287 8.83986 21.9999 9.42121 21.9999Z" fill="#0974A2"/>
<path d="M15.737 21.9999C16.3183 21.9999 16.7896 21.5287 16.7896 20.9473C16.7896 20.3659 16.3183 19.8947 15.737 19.8947C15.1556 19.8947 14.6844 20.3659 14.6844 20.9473C14.6844 21.5287 15.1556 21.9999 15.737 21.9999Z" fill="#0974A2"/>
</svg>
