<svg width="18" height="20" viewBox="0 0 18 20" fill="none" xmlns="http://www.w3.org/2000/svg">
<path fill-rule="evenodd" clip-rule="evenodd" d="M17.455 2.73005C18 3.79961 18 5.19974 18 8V10.6988C18 10.9785 18 11.1183 17.9944 11.2364C17.8725 13.812 15.812 15.8725 13.2364 15.9944C13.1183 16 12.9623 16 12.6504 16L12.5703 16.0001C11.5501 16.0066 10.5562 16.3251 9.72224 16.9128L9.66922 16.9506L7.05848 18.8154C6.1635 19.4546 4.98743 18.5314 5.3959 17.5103C5.68525 16.7869 5.15251 16 4.37341 16H3.77166C1.68863 16 0 14.3114 0 12.2283V8C0 5.19974 0 3.79961 0.544967 2.73005C1.02433 1.78924 1.78924 1.02433 2.73005 0.544967C3.79961 0 5.19974 0 8 0H10C12.8003 0 14.2004 0 15.27 0.544967C16.2108 1.02433 16.9757 1.78924 17.455 2.73005ZM6 8C6 8.55228 5.55228 9 5 9C4.44772 9 4 8.55228 4 8C4 7.44772 4.44772 7 5 7C5.55228 7 6 7.44772 6 8ZM10 8C10 8.55228 9.55228 9 9 9C8.44772 9 8 8.55228 8 8C8 7.44772 8.44772 7 9 7C9.55228 7 10 7.44772 10 8ZM13 9C13.5523 9 14 8.55228 14 8C14 7.44772 13.5523 7 13 7C12.4477 7 12 7.44772 12 8C12 8.55228 12.4477 9 13 9Z" fill="#0974A2"/>
</svg>
