<svg width="12" height="14" viewBox="0 0 12 14" fill="none" xmlns="http://www.w3.org/2000/svg">
<path fill-rule="evenodd" clip-rule="evenodd" d="M11.6367 2.15328C12 2.86632 12 3.79974 12 5.66659V7.46581C12 7.65223 12 7.74544 11.9963 7.82421C11.915 9.54125 10.5413 10.9149 8.8243 10.9962C8.74553 10.9999 8.64154 10.9999 8.43357 10.9999L8.38021 11C7.70005 11.0043 7.0375 11.2167 6.4815 11.6085L6.44614 11.6336L4.70565 12.8768C4.109 13.303 3.32495 12.6875 3.59727 12.0068C3.79017 11.5245 3.43501 10.9999 2.91561 10.9999H2.51444C1.12575 10.9999 0 9.87417 0 8.48548V5.66659C0 3.79974 0 2.86632 0.363312 2.15328C0.682889 1.52608 1.19282 1.01614 1.82003 0.696564C2.53307 0.333252 3.46649 0.333252 5.33333 0.333252H6.66667C8.53351 0.333252 9.46693 0.333252 10.18 0.696564C10.8072 1.01614 11.3171 1.52608 11.6367 2.15328ZM4 5.66659C4 6.03477 3.70152 6.33325 3.33333 6.33325C2.96514 6.33325 2.66667 6.03477 2.66667 5.66659C2.66667 5.2984 2.96514 4.99992 3.33333 4.99992C3.70152 4.99992 4 5.2984 4 5.66659ZM6.66667 5.66659C6.66667 6.03477 6.36819 6.33325 6 6.33325C5.63181 6.33325 5.33333 6.03477 5.33333 5.66659C5.33333 5.2984 5.63181 4.99992 6 4.99992C6.36819 4.99992 6.66667 5.2984 6.66667 5.66659ZM8.66667 6.33325C9.03486 6.33325 9.33333 6.03477 9.33333 5.66659C9.33333 5.2984 9.03486 4.99992 8.66667 4.99992C8.29848 4.99992 8 5.2984 8 5.66659C8 6.03477 8.29848 6.33325 8.66667 6.33325Z" fill="#0974A2"/>
</svg>
