<svg width="31" height="31" viewBox="0 0 31 31" fill="none" xmlns="http://www.w3.org/2000/svg">
<path d="M24.8638 23.4697C24.5709 23.1768 24.096 23.1768 23.8031 23.4697C23.5102 23.7626 23.5102 24.2375 23.8031 24.5304L24.8638 23.4697ZM29.1363 29.8636C29.4292 30.1565 29.904 30.1565 30.1969 29.8636C30.4898 29.5707 30.4898 29.0959 30.1969 28.803L29.1363 29.8636ZM23.8031 24.5304L29.1363 29.8636L30.1969 28.803L24.8638 23.4697L23.8031 24.5304ZM13.6667 24.5833C7.45346 24.5833 2.41667 19.5465 2.41667 13.3333H0.916667C0.916667 20.3749 6.62504 26.0833 13.6667 26.0833V24.5833ZM24.9167 13.3333C24.9167 19.5465 19.8799 24.5833 13.6667 24.5833V26.0833C20.7083 26.0833 26.4167 20.3749 26.4167 13.3333H24.9167ZM13.6667 2.08325C19.8799 2.08325 24.9167 7.12005 24.9167 13.3333H26.4167C26.4167 6.29162 20.7083 0.583252 13.6667 0.583252V2.08325ZM13.6667 0.583252C6.62504 0.583252 0.916667 6.29162 0.916667 13.3333H2.41667C2.41667 7.12005 7.45346 2.08325 13.6667 2.08325V0.583252Z" fill="white"/>
</svg>
