<svg width="385" height="169" viewBox="0 0 385 169" fill="none" xmlns="http://www.w3.org/2000/svg">
<path d="M126.822 101.75H62.0723C50.9056 101.75 41.1556 98.4167 32.8223 91.75V169H7.07227V87.5V77.75C7.07227 62.0833 6.6556 48.5 5.82227 37C5.1556 25.3333 3.4056 14.5 0.572266 4.49999L24.0723 0.249997C28.2389 10.25 30.9056 29.25 32.0723 57.25C33.4056 62.4167 36.1556 66.6667 40.3223 70C44.6556 73.1667 49.5723 74.75 55.0723 74.75H55.8223C51.8223 67.25 49.8223 59.3333 49.8223 51C49.8223 42 52.0723 33.8333 56.5723 26.5C61.2389 19 67.4056 13.0833 75.0723 8.74999C82.9056 4.41665 91.4056 2.24999 100.572 2.24999H120.822V28H100.572C94.0723 28 88.4889 30.25 83.8223 34.75C79.3223 39.25 77.0723 44.6667 77.0723 51C77.0723 57.6667 79.3223 63.3333 83.8223 68C88.4889 72.5 94.0723 74.75 100.572 74.75H126.822V101.75ZM191.109 169C182.609 169 174.776 167 167.609 163C160.609 158.833 155.026 153.25 150.859 146.25C146.859 139.083 144.859 131.333 144.859 123C144.859 114.667 146.859 107 150.859 100C155.026 92.8333 160.609 87.25 167.609 83.25C174.776 79.0833 182.609 77 191.109 77C199.443 77 207.109 79.0833 214.109 83.25C221.109 87.25 226.609 92.8333 230.609 100C234.776 107 236.859 114.667 236.859 123C236.859 131.333 234.776 139.083 230.609 146.25C226.609 153.25 221.109 158.833 214.109 163C207.109 167 199.443 169 191.109 169ZM191.109 143.25C196.776 143.25 201.526 141.333 205.359 137.5C209.193 133.5 211.109 128.667 211.109 123C211.109 117.333 209.193 112.583 205.359 108.75C201.526 104.75 196.776 102.75 191.109 102.75C185.276 102.75 180.359 104.75 176.359 108.75C172.526 112.583 170.609 117.333 170.609 123C170.609 128.667 172.526 133.5 176.359 137.5C180.359 141.333 185.276 143.25 191.109 143.25ZM384.391 101.75H319.641C308.474 101.75 298.724 98.4167 290.391 91.75V169H264.641V87.5V77.75C264.641 62.0833 264.224 48.5 263.391 37C262.724 25.3333 260.974 14.5 258.141 4.49999L281.641 0.249997C285.807 10.25 288.474 29.25 289.641 57.25C290.974 62.4167 293.724 66.6667 297.891 70C302.224 73.1667 307.141 74.75 312.641 74.75H313.391C309.391 67.25 307.391 59.3333 307.391 51C307.391 42 309.641 33.8333 314.141 26.5C318.807 19 324.974 13.0833 332.641 8.74999C340.474 4.41665 348.974 2.24999 358.141 2.24999H378.391V28H358.141C351.641 28 346.057 30.25 341.391 34.75C336.891 39.25 334.641 44.6667 334.641 51C334.641 57.6667 336.891 63.3333 341.391 68C346.057 72.5 351.641 74.75 358.141 74.75H384.391V101.75Z" fill="#252525"/>
</svg>
