<svg width="95" height="101" viewBox="0 0 95 101" fill="none" xmlns="http://www.w3.org/2000/svg">
<path d="M1 18C0.838655 18 0.757983 17.9193 0.757983 17.758V15.604C0.757983 15.4427 0.838655 15.362 1 15.362H4.89647C5.05782 15.362 5.13849 15.4427 5.13849 15.604V17.758C5.13849 17.9193 5.05782 18 4.89647 18H1ZM4.89968 18C4.73834 18 4.65767 17.9193 4.65767 17.758V15.604C4.65767 15.4427 4.73834 15.362 4.89968 15.362H8.79616C8.9575 15.362 9.03817 15.4427 9.03817 15.604V17.758C9.03817 17.9193 8.9575 18 8.79616 18H4.89968ZM8.79937 18C8.63803 18 8.55735 17.9193 8.55735 17.758V15.604C8.55735 15.4427 8.63803 15.362 8.79937 15.362H12.6958C12.8572 15.362 12.9379 15.4427 12.9379 15.604V17.758C12.9379 17.9193 12.8572 18 12.6958 18H8.79937ZM12.6991 18C12.5377 18 12.457 17.9193 12.457 17.758V15.604C12.457 15.4427 12.5377 15.362 12.6991 15.362H16.5955C16.7569 15.362 16.8375 15.4427 16.8375 15.604V17.758C16.8375 17.9193 16.7569 18 16.5955 18H12.6991ZM16.5987 18C16.4374 18 16.3567 17.9193 16.3567 17.758V15.604C16.3567 15.4427 16.4374 15.362 16.5987 15.362H20.4952C20.6566 15.362 20.7372 15.4427 20.7372 15.604V17.758C20.7372 17.9193 20.6566 18 20.4952 18H16.5987ZM20.4984 18C20.3371 18 20.2564 17.9193 20.2564 17.758V15.604C20.2564 15.4427 20.3371 15.362 20.4984 15.362H24.3949C24.5562 15.362 24.6369 15.4427 24.6369 15.604V17.758C24.6369 17.9193 24.5562 18 24.3949 18H20.4984ZM24.3981 18C24.2368 18 24.1561 17.9193 24.1561 17.758V15.604C24.1561 15.4427 24.2368 15.362 24.3981 15.362H28.2946C28.4559 15.362 28.5366 15.4427 28.5366 15.604V17.758C28.5366 17.9193 28.4559 18 28.2946 18H24.3981ZM28.2978 18C28.1364 18 28.0558 17.9193 28.0558 17.758V15.604C28.0558 15.4427 28.1364 15.362 28.2978 15.362H32.1943C32.3556 15.362 32.4363 15.4427 32.4363 15.604V17.758C32.4363 17.9193 32.3556 18 32.1943 18H28.2978ZM32.1975 18C32.0361 18 31.9555 17.9193 31.9555 17.758V15.604C31.9555 15.4427 32.0361 15.362 32.1975 15.362H36.094C36.2553 15.362 36.336 15.4427 36.336 15.604V17.758C36.336 17.9193 36.2553 18 36.094 18H32.1975ZM48.8515 15.362C49.0128 15.362 49.0935 15.4427 49.0935 15.604V17.758C49.0935 17.9193 49.0128 18 48.8515 18H47.7624C47.117 18 46.5442 17.8709 46.0441 17.6128C45.5439 17.3385 45.1325 16.9674 44.8098 16.4995C44.3741 16.9674 43.8659 17.3385 43.2851 17.6128C42.7042 17.8709 42.083 18 41.4215 18H36.0972C35.9358 18 35.8551 17.9193 35.8551 17.758V15.604C35.8551 15.4427 35.9358 15.362 36.0972 15.362H41.4457C42.0104 15.362 42.5025 15.1603 42.922 14.757C43.3415 14.3536 43.5513 13.8454 43.5513 13.2323C43.5513 12.4578 43.1721 11.8447 42.4138 11.3929L36.7506 7.66588V5.65714L41.4699 0.671596L43.1641 2.29311L39.2918 6.35899L44.0111 9.45681C44.6565 9.8763 45.1567 10.4168 45.5116 11.0783C45.8666 11.7237 46.0441 12.4578 46.0441 13.2807V13.6437C46.0602 14.1277 46.2296 14.5392 46.5523 14.878C46.8911 15.2007 47.2945 15.362 47.7624 15.362H48.8515ZM48.6178 15.604C48.6178 15.4427 48.6984 15.362 48.8598 15.362H50.3119C50.7798 15.362 51.1831 15.2007 51.522 14.878C51.8608 14.5392 52.0302 14.1277 52.0302 13.6437V9.74723H54.523V13.6437C54.523 14.1277 54.6924 14.5392 55.0312 14.878C55.37 15.2007 55.7734 15.362 56.2413 15.362H57.7176C57.8789 15.362 57.9596 15.4427 57.9596 15.604V17.758C57.9596 17.9193 57.8789 18 57.7176 18H56.2413C55.612 18 55.0393 17.8629 54.523 17.5886C54.0228 17.3143 53.6114 16.9351 53.2887 16.4511C52.966 16.9351 52.5465 17.3143 52.0302 17.5886C51.53 17.8629 50.9573 18 50.3119 18H48.8598C48.6984 18 48.6178 17.9193 48.6178 17.758V15.604ZM50.1667 20.2266H52.6352V22.6951H50.1667V20.2266ZM53.8937 20.2266H56.3381V22.6951H53.8937V20.2266ZM60.6511 5.0763H63.1197V7.54487H60.6511V5.0763ZM57.4807 15.604C57.4807 15.4427 57.5613 15.362 57.7227 15.362H58.9328C59.4007 15.362 59.804 15.2007 60.1429 14.878C60.4817 14.5392 60.6511 14.1277 60.6511 13.6437V9.74723H63.1439V13.6437C63.1439 14.1277 63.3133 14.5392 63.6521 14.878C63.9909 15.2007 64.3943 15.362 64.8622 15.362H66.0723C66.2336 15.362 66.3143 15.4427 66.3143 15.604V17.758C66.3143 17.9193 66.2336 18 66.0723 18H64.8622C64.2168 18 63.636 17.8629 63.1197 17.5886C62.6195 17.3143 62.2081 16.9351 61.8854 16.4511C61.5788 16.9351 61.1674 17.3143 60.6511 17.5886C60.1509 17.8629 59.5782 18 58.9328 18H57.7227C57.5613 18 57.4807 17.9193 57.4807 17.758V15.604ZM65.8236 15.604C65.8236 15.4427 65.9043 15.362 66.0657 15.362H67.5178C67.9857 15.362 68.389 15.2007 68.7278 14.878C69.0667 14.5392 69.2361 14.1277 69.2361 13.6437V9.74723H71.7288V13.6437C71.7288 14.1277 71.8983 14.5392 72.2371 14.878C72.5759 15.2007 72.9793 15.362 73.4472 15.362H74.9235C75.0848 15.362 75.1655 15.4427 75.1655 15.604V17.758C75.1655 17.9193 75.0848 18 74.9235 18H73.4472C72.8179 18 72.2451 17.8629 71.7288 17.5886C71.2287 17.3143 70.8172 16.9351 70.4946 16.4511C70.1719 16.9351 69.7524 17.3143 69.2361 17.5886C68.7359 17.8629 68.1631 18 67.5178 18H66.0657C65.9043 18 65.8236 17.9193 65.8236 17.758V15.604ZM67.3725 20.2266H69.8411V22.6951H67.3725V20.2266ZM71.0996 20.2266H73.544V22.6951H71.0996V20.2266ZM74.9286 18C74.7672 18 74.6866 17.9193 74.6866 17.758V15.604C74.6866 15.4427 74.7672 15.362 74.9286 15.362H76.0176C76.4855 15.362 76.8889 15.2007 77.2277 14.878C77.5666 14.5392 77.736 14.1277 77.736 13.6437V1.93008H80.2287V13.6437C80.2287 14.1277 80.3982 14.5392 80.737 14.878C81.0758 15.2007 81.4792 15.362 81.9471 15.362H83.0361C83.1975 15.362 83.2782 15.4427 83.2782 15.604V17.758C83.2782 17.9193 83.1975 18 83.0361 18H81.9471C81.3017 18 80.7128 17.8548 80.1803 17.5644C79.664 17.2578 79.2607 16.8545 78.9703 16.3543C78.6798 16.8545 78.2765 17.2578 77.7602 17.5644C77.2439 17.8548 76.663 18 76.0176 18H74.9286ZM82.7932 15.604C82.7932 15.4427 82.8738 15.362 83.0352 15.362H88.3838C88.9485 15.362 89.4406 15.1603 89.8601 14.757C90.2796 14.3536 90.4893 13.8454 90.4893 13.2323C90.4893 12.4578 90.1102 11.8447 89.3518 11.3929L83.6886 7.66588V5.65714L88.408 0.671596L90.1021 2.29311L86.2298 6.35899L90.9491 9.45681C91.5945 9.8763 92.0947 10.4168 92.4496 11.0783C92.8046 11.7398 92.9821 12.482 92.9821 13.3049C92.9821 14.16 92.7723 14.9506 92.3528 15.6766C91.9495 16.3866 91.3928 16.9513 90.6829 17.3708C89.973 17.7903 89.1986 18 88.3596 18H83.0352C82.8738 18 82.7932 17.9193 82.7932 17.758V15.604ZM19.0545 56.362C19.2158 56.362 19.2965 56.4427 19.2965 56.604V58.758C19.2965 58.9193 19.2158 59 19.0545 59H17.4813C17.7556 59.5163 17.8928 60.0971 17.8928 60.7425C17.8928 61.5331 17.6911 62.2592 17.2877 62.9207C16.9005 63.5822 16.3681 64.1066 15.6904 64.4938C15.0289 64.8971 14.3029 65.0988 13.5123 65.0988H8.1395C7.12303 65.0988 6.17916 64.8487 5.3079 64.3486C4.45277 63.8484 3.76706 63.1627 3.25076 62.2914C2.75059 61.4363 2.5005 60.5005 2.5005 59.484V54.1355H4.99328V59.3388C4.99328 59.9035 5.13042 60.4279 5.40471 60.9119C5.69513 61.396 6.08235 61.7751 6.56639 62.0494C7.05042 62.3398 7.57479 62.485 8.1395 62.485H13.5607C14.0286 62.485 14.4319 62.3076 14.7708 61.9526C15.1096 61.6138 15.279 61.2104 15.279 60.7425C15.279 60.2585 15.1096 59.8471 14.7708 59.5082C14.4319 59.1694 14.0286 59 13.5607 59H8.84134V56.362H19.0545ZM19.0567 59C18.8954 59 18.8147 58.9193 18.8147 58.758V56.604C18.8147 56.4427 18.8954 56.362 19.0567 56.362H21.1139C21.5979 56.362 22.0013 56.1926 22.3239 55.8538C22.6628 55.515 22.8322 55.1035 22.8322 54.6195V50.0212H25.325V54.7647C25.325 55.5392 25.1394 56.2491 24.7683 56.8945C24.3972 57.5398 23.889 58.0561 23.2436 58.4434C22.5982 58.8145 21.8883 59 21.1139 59H19.0567ZM19.0567 61.1782H21.5253V63.6467H19.0567V61.1782ZM22.7838 61.1782H25.2282V63.6467H22.7838V61.1782ZM20.9445 64.9052H23.3888V67.3496H20.9445V64.9052ZM27.9784 42.9301H30.4712V59H27.9784V42.9301ZM38.8471 56.362C39.0084 56.362 39.0891 56.4427 39.0891 56.604V58.758C39.0891 58.9193 39.0084 59 38.8471 59H37.758C37.0965 59 36.5237 58.8548 36.0397 58.5644C36.0236 59.7583 35.8299 60.7425 35.4588 61.517C35.1039 62.3076 34.5392 63.0013 33.7647 63.5983C33.0064 64.1953 31.9173 64.8326 30.4975 65.5103L29.5536 63.4289C30.7314 62.7674 31.5704 62.243 32.0706 61.8558C32.5869 61.4847 32.958 61.0329 33.1839 60.5005C33.4259 59.9842 33.5469 59.2743 33.5469 58.3708V50.7472H36.0397V54.6437C36.0397 55.1277 36.201 55.5392 36.5237 55.878C36.8625 56.2007 37.274 56.362 37.758 56.362H38.8471ZM38.8872 45.3503H41.3557V47.7946H38.8872V45.3503ZM42.6142 45.3503H45.0586V47.7946H42.6142V45.3503ZM38.8388 59C38.6774 59 38.5967 58.9193 38.5967 58.758V56.604C38.5967 56.4427 38.6774 56.362 38.8388 56.362H40.8959C41.3799 56.362 41.7833 56.1926 42.106 55.8538C42.4448 55.515 42.6142 55.1035 42.6142 54.6195V50.0212H45.107V54.7647C45.107 55.5392 44.9214 56.2491 44.5504 56.8945C44.1793 57.5398 43.671 58.0561 43.0257 58.4434C42.3803 58.8145 41.6704 59 40.8959 59H38.8388ZM58.4363 56.362C58.5976 56.362 58.6783 56.4427 58.6783 56.604V58.758C58.6783 58.9193 58.5976 59 58.4363 59H57.1294C57.0164 60.081 56.7018 60.9765 56.1855 61.6864C55.6692 62.4124 54.9593 63.0417 54.0558 63.5741C53.1522 64.1227 51.8534 64.7681 50.1593 65.5103L49.3848 63.3079C50.8853 62.6625 51.9905 62.1382 52.7005 61.7348C53.4265 61.3476 53.9347 60.9442 54.2252 60.5247C54.5317 60.1213 54.685 59.6131 54.685 59H52.4584C51.5549 59 50.724 58.7983 49.9657 58.395C49.2235 57.9755 48.6265 57.4027 48.1747 56.6766C47.7391 55.9506 47.5213 55.1439 47.5213 54.2565C47.5213 53.3691 47.7391 52.5543 48.1747 51.8121C48.6265 51.0699 49.2235 50.481 49.9657 50.0454C50.724 49.5936 51.5549 49.3677 52.4584 49.3677C53.3297 49.3677 54.1284 49.5855 54.8544 50.0212C55.5805 50.4568 56.1452 51.0538 56.5485 51.8121C56.968 52.5543 57.1778 53.3691 57.1778 54.2565V56.362H58.4363ZM54.685 54.2565C54.685 53.6272 54.4672 53.0948 54.0316 52.6592C53.5959 52.2074 53.0716 51.9815 52.4584 51.9815C51.8131 51.9815 51.2645 52.2074 50.8127 52.6592C50.3771 53.0948 50.1593 53.6272 50.1593 54.2565C50.1593 54.9018 50.3771 55.4424 50.8127 55.878C51.2645 56.2975 51.8131 56.5072 52.4584 56.5072H54.685V54.2565ZM58.4317 59C58.2704 59 58.1897 58.9193 58.1897 58.758V56.604C58.1897 56.4427 58.2704 56.362 58.4317 56.362H63.4415C63.9255 56.362 64.3369 56.1926 64.6758 55.8538C65.0146 55.515 65.184 55.1035 65.184 54.6195V50.0212H67.6526V54.7647C67.6526 55.5392 67.467 56.2491 67.0959 56.8945C66.7248 57.5398 66.2166 58.0561 65.5712 58.4434C64.9258 58.8145 64.2159 59 63.4415 59H58.4317ZM58.8674 61.2024H61.3359V63.6709H58.8674V61.2024ZM62.5944 61.2024H65.063V63.6709H62.5944V61.2024ZM72.838 46.0763V48.5449H70.3694V46.0763H72.838ZM75.6696 56.362C75.8309 56.362 75.9116 56.4427 75.9116 56.604V58.758C75.9116 58.9193 75.8309 59 75.6696 59H74.5805C73.919 59 73.3462 58.8548 72.8622 58.5644C72.846 59.7583 72.6524 60.7425 72.2813 61.517C71.9264 62.3076 71.3617 63.0013 70.5872 63.5983C69.8289 64.1953 68.7398 64.8326 67.32 65.5103L66.3761 63.4289C67.5539 62.7674 68.3929 62.243 68.8931 61.8558C69.4094 61.4847 69.7805 61.0329 70.0064 60.5005C70.2484 59.9842 70.3694 59.2743 70.3694 58.3708V50.7472H72.8622V54.6437C72.8622 55.1277 73.0235 55.5392 73.3462 55.878C73.685 56.2007 74.0965 56.362 74.5805 56.362H75.6696ZM75.4192 56.604C75.4192 56.4427 75.4999 56.362 75.6612 56.362H77.1133C77.5812 56.362 77.9846 56.2007 78.3234 55.878C78.6622 55.5392 78.8317 55.1277 78.8317 54.6437V50.7472H81.3244V54.6437C81.3244 55.1277 81.4938 55.5392 81.8327 55.878C82.1715 56.2007 82.5749 56.362 83.0428 56.362H84.5191C84.6804 56.362 84.7611 56.4427 84.7611 56.604V58.758C84.7611 58.9193 84.6804 59 84.5191 59H83.0428C82.4135 59 81.8407 58.8629 81.3244 58.5886C80.8243 58.3143 80.4128 57.9351 80.0901 57.4511C79.7675 57.9351 79.348 58.3143 78.8317 58.5886C78.3315 58.8629 77.7587 59 77.1133 59H75.6612C75.4999 59 75.4192 58.9193 75.4192 58.758V56.604ZM76.9681 61.2266H79.4367V63.6951H76.9681V61.2266ZM80.6952 61.2266H83.1396V63.6951H80.6952V61.2266ZM89.0015 40.8245H91.47V43.2931H89.0015V40.8245ZM84.5242 59C84.3628 59 84.2821 58.9193 84.2821 58.758V56.604C84.2821 56.4427 84.3628 56.362 84.5242 56.362H90.3326C90.8166 56.362 91.22 56.2007 91.5427 55.878C91.8815 55.5553 92.0509 55.1439 92.0509 54.6437V54.2323H90.2358C89.4129 54.2323 88.6546 54.0467 87.9608 53.6756C87.2832 53.2884 86.7426 52.7721 86.3393 52.1267C85.9359 51.4652 85.7342 50.7311 85.7342 49.9244C85.7342 49.1015 85.9359 48.3432 86.3393 47.6494C86.7588 46.9395 87.3074 46.3829 87.985 45.9795C88.6788 45.5761 89.429 45.3745 90.2358 45.3745C91.0425 45.3745 91.7685 45.5761 92.4139 45.9795C93.0754 46.3829 93.5917 46.9314 93.9628 47.6252C94.35 48.319 94.5437 49.0854 94.5437 49.9244V54.7889C94.5437 55.5472 94.3581 56.2491 93.987 56.8945C93.6159 57.5398 93.1077 58.0561 92.4623 58.4434C91.8169 58.8145 91.107 59 90.3326 59H84.5242ZM92.1961 49.8276C92.1961 49.2629 91.9944 48.7869 91.5911 48.3997C91.2038 47.9963 90.7279 47.7946 90.1632 47.7946C89.5823 47.7946 89.0902 47.9882 88.6869 48.3755C88.2996 48.7627 88.106 49.2467 88.106 49.8276C88.106 50.4245 88.2996 50.9247 88.6869 51.3281C89.0741 51.7153 89.5662 51.9089 90.1632 51.9089H92.1961V49.8276ZM1 100C0.838655 100 0.757983 99.9193 0.757983 99.758V97.604C0.757983 97.4427 0.838655 97.362 1 97.362H4.89647C5.05782 97.362 5.13849 97.4427 5.13849 97.604V99.758C5.13849 99.9193 5.05782 100 4.89647 100H1ZM4.89968 100C4.73834 100 4.65767 99.9193 4.65767 99.758V97.604C4.65767 97.4427 4.73834 97.362 4.89968 97.362H8.79616C8.9575 97.362 9.03817 97.4427 9.03817 97.604V99.758C9.03817 99.9193 8.9575 100 8.79616 100H4.89968ZM8.79937 100C8.63803 100 8.55735 99.9193 8.55735 99.758V97.604C8.55735 97.4427 8.63803 97.362 8.79937 97.362H12.6958C12.8572 97.362 12.9379 97.4427 12.9379 97.604V99.758C12.9379 99.9193 12.8572 100 12.6958 100H8.79937ZM12.6991 100C12.5377 100 12.457 99.9193 12.457 99.758V97.604C12.457 97.4427 12.5377 97.362 12.6991 97.362H16.5955C16.7569 97.362 16.8375 97.4427 16.8375 97.604V99.758C16.8375 99.9193 16.7569 100 16.5955 100H12.6991ZM16.5987 100C16.4374 100 16.3567 99.9193 16.3567 99.758V97.604C16.3567 97.4427 16.4374 97.362 16.5987 97.362H20.4952C20.6566 97.362 20.7372 97.4427 20.7372 97.604V99.758C20.7372 99.9193 20.6566 100 20.4952 100H16.5987ZM20.4984 100C20.3371 100 20.2564 99.9193 20.2564 99.758V97.604C20.2564 97.4427 20.3371 97.362 20.4984 97.362H24.3949C24.5562 97.362 24.6369 97.4427 24.6369 97.604V99.758C24.6369 99.9193 24.5562 100 24.3949 100H20.4984ZM24.3981 100C24.2368 100 24.1561 99.9193 24.1561 99.758V97.604C24.1561 97.4427 24.2368 97.362 24.3981 97.362H28.2946C28.4559 97.362 28.5366 97.4427 28.5366 97.604V99.758C28.5366 99.9193 28.4559 100 28.2946 100H24.3981ZM28.2978 100C28.1364 100 28.0558 99.9193 28.0558 99.758V97.604C28.0558 97.4427 28.1364 97.362 28.2978 97.362H32.1943C32.3556 97.362 32.4363 97.4427 32.4363 97.604V99.758C32.4363 99.9193 32.3556 100 32.1943 100H28.2978ZM32.1975 100C32.0361 100 31.9555 99.9193 31.9555 99.758V97.604C31.9555 97.4427 32.0361 97.362 32.1975 97.362H36.094C36.2553 97.362 36.336 97.4427 36.336 97.604V99.758C36.336 99.9193 36.2553 100 36.094 100H32.1975ZM36.0972 100C35.9358 100 35.8551 99.9193 35.8551 99.758V97.604C35.8551 97.4427 35.9358 97.362 36.0972 97.362H39.9936C40.155 97.362 40.2357 97.4427 40.2357 97.604V99.758C40.2357 99.9193 40.155 100 39.9936 100H36.0972ZM41.3521 87.0521H43.7965V89.4965H41.3521V87.0521ZM45.055 87.0521H47.5236V89.4965H45.055V87.0521ZM39.7548 97.604C39.7548 97.4427 39.8355 97.362 39.9968 97.362H41.4489C41.9168 97.362 42.3202 97.2007 42.659 96.878C42.9979 96.5392 43.1673 96.1277 43.1673 95.6437V91.7472H45.66V95.6437C45.66 96.1277 45.8295 96.5392 46.1683 96.878C46.5071 97.2007 46.9105 97.362 47.3784 97.362H48.8547C49.016 97.362 49.0967 97.4427 49.0967 97.604V99.758C49.0967 99.9193 49.016 100 48.8547 100H47.3784C46.7491 100 46.1763 99.8629 45.66 99.5886C45.1599 99.3143 44.7484 98.9351 44.4258 98.4511C44.1031 98.9351 43.6836 99.3143 43.1673 99.5886C42.6671 99.8629 42.0943 100 41.4489 100H39.9968C39.8355 100 39.7548 99.9193 39.7548 99.758V97.604ZM56.7253 90.4161C57.6288 90.4161 58.4517 90.6259 59.1939 91.0454C59.9522 91.4487 60.5492 92.0134 60.9848 92.7395C61.4366 93.4655 61.6625 94.2642 61.6625 95.1355C61.6625 96.0229 61.4366 96.8457 60.9848 97.604C60.5492 98.3462 59.9522 98.9432 59.1939 99.395C58.4517 99.8306 57.6288 100.048 56.7253 100.048C56.0315 100.048 55.3862 99.9113 54.7892 99.637C54.1922 99.3627 53.6759 98.9835 53.2403 98.4995C52.9176 98.9674 52.5062 99.3385 52.006 99.6128C51.5058 99.8709 50.933 100 50.2877 100H48.8598C48.6984 100 48.6178 99.9193 48.6178 99.758V97.604C48.6178 97.4427 48.6984 97.362 48.8598 97.362H50.2877C50.7556 97.362 51.1589 97.2007 51.4978 96.878C51.8366 96.5392 52.006 96.1277 52.006 95.6437V92.9089H50.5539V90.4161H56.7253ZM56.7253 97.4104C57.3707 97.4104 57.9112 97.1926 58.3468 96.757C58.7986 96.3213 59.0245 95.7808 59.0245 95.1355C59.0245 94.5062 58.7986 93.9818 58.3468 93.5624C57.9112 93.1267 57.3707 92.9089 56.7253 92.9089H54.4746V95.1355C54.4746 95.7808 54.6924 96.3213 55.128 96.757C55.5636 97.1926 56.0961 97.4104 56.7253 97.4104ZM69.5965 97.362C70.0644 97.362 70.4596 97.2007 70.7823 96.878C71.1212 96.5392 71.2906 96.1277 71.2906 95.6437V84.3899H73.7833V95.6437C73.7833 96.1277 73.9528 96.5392 74.2916 96.878C74.6304 97.2007 75.0338 97.362 75.5017 97.362H76.5907C76.7521 97.362 76.8328 97.4427 76.8328 97.604V99.758C76.8328 99.9193 76.7521 100 76.5907 100H75.5017C74.8563 100 74.2754 99.8548 73.7591 99.5644C73.2428 99.2578 72.8395 98.8545 72.5491 98.3543C72.2586 98.8545 71.8553 99.2578 71.339 99.5644C70.8227 99.8548 70.2418 100 69.5965 100H63.5702V97.362H69.5965ZM63.7638 85.2854L66.184 84.6561L68.8946 95.7889L66.4986 96.4182L63.7638 85.2854ZM93.3548 91.0212V100H89.5309C88.8855 100 88.3127 99.8709 87.8126 99.6128C87.3124 99.3385 86.901 98.9674 86.5783 98.4995C86.2556 98.9835 85.8361 99.3627 85.3198 99.637C84.8196 99.9113 84.2469 100.048 83.6015 100.048C82.9561 100.048 82.3753 99.9113 81.859 99.637C81.3588 99.3627 80.9474 98.9835 80.6247 98.4995C80.302 98.9674 79.8905 99.3385 79.3904 99.6128C78.8902 99.8709 78.3174 100 77.6721 100H76.583C76.4216 100 76.341 99.9193 76.341 99.758V97.604C76.341 97.4427 76.4216 97.362 76.583 97.362H77.6721C78.14 97.362 78.5433 97.2007 78.8821 96.878C79.221 96.5392 79.3904 96.1277 79.3904 95.6437V91.7472H81.8832V95.6921C81.8832 96.1761 82.0526 96.5876 82.3914 96.9264C82.7302 97.2491 83.1336 97.4104 83.6015 97.4104C84.0855 97.4104 84.4889 97.2491 84.8116 96.9264C85.1504 96.5876 85.3198 96.1761 85.3198 95.6921V91.7472H87.8126V95.6437C87.8126 96.1277 87.982 96.5392 88.3208 96.878C88.6596 97.2007 89.063 97.362 89.5309 97.362H90.862V91.0212H93.3548Z" fill="#070707"/>
</svg>
