<svg width="20" height="20" viewBox="0 0 20 20" fill="none" xmlns="http://www.w3.org/2000/svg">
<path d="M4.45492 18.7553L4.22315 19.4686H4.22315L4.45492 18.7553ZM1.24472 15.5451L1.95801 15.3133H1.95801L1.24472 15.5451ZM18.7553 15.5451L19.4686 15.7768L18.7553 15.5451ZM15.5451 18.7553L15.7768 19.4686H15.7768L15.5451 18.7553ZM10.6002 5.00325L10.5961 5.75324H10.5961L10.6002 5.00325ZM15.5451 5.24472L15.7768 4.53143L15.5451 5.24472ZM18.7553 8.45492L19.4686 8.22315V8.22315L18.7553 8.45492ZM6.9414 1.42442L6.57119 2.07668V2.07668L6.9414 1.42442ZM8.63989 3.42621L7.94561 3.7099L7.94564 3.70997L8.63989 3.42621ZM1.82344 1.16977L1.45324 0.517504L1.45324 0.517504L1.82344 1.16977ZM1.14405 1.97048L0.449768 1.6868L1.14405 1.97048ZM8.6493 3.44925L7.95505 3.73301L7.95506 3.73303L8.6493 3.44925ZM7 11.25C6.58579 11.25 6.25 11.5858 6.25 12C6.25 12.4142 6.58579 12.75 7 12.75V11.25ZM13 12.75C13.4142 12.75 13.75 12.4142 13.75 12C13.75 11.5858 13.4142 11.25 13 11.25V12.75ZM12 18.25H8V19.75H12V18.25ZM8 18.25C6.08034 18.25 5.29839 18.2407 4.68668 18.042L4.22315 19.4686C5.11777 19.7593 6.19709 19.75 8 19.75V18.25ZM0.25 10C0.25 10.9285 0.249945 12.1375 0.280902 13.2097C0.296372 13.7455 0.319808 14.256 0.355871 14.6854C0.390011 15.0919 0.440274 15.4963 0.531425 15.7768L1.95801 15.3133C1.9268 15.2173 1.8853 14.9729 1.85061 14.5599C1.81785 14.1698 1.7954 13.6901 1.78028 13.1664C1.75006 12.1197 1.75 10.9328 1.75 10H0.25ZM4.68668 18.042C3.39282 17.6216 2.37841 16.6072 1.95801 15.3133L0.531425 15.7768C1.1002 17.5274 2.47263 18.8998 4.22315 19.4686L4.68668 18.042ZM18.25 12C18.25 13.9197 18.2407 14.7016 18.042 15.3133L19.4686 15.7768C19.7593 14.8822 19.75 13.8029 19.75 12H18.25ZM12 19.75C13.8029 19.75 14.8822 19.7593 15.7768 19.4686L15.3133 18.042C14.7016 18.2407 13.9197 18.25 12 18.25V19.75ZM18.042 15.3133C17.6216 16.6072 16.6072 17.6216 15.3133 18.042L15.7768 19.4686C17.5274 18.8998 18.8998 17.5274 19.4686 15.7768L18.042 15.3133ZM10.5961 5.75324C11.566 5.75846 12.6485 5.77209 13.557 5.8073C14.0119 5.82493 14.4155 5.84769 14.7359 5.87662C15.0808 5.90776 15.2605 5.94084 15.3133 5.95801L15.7768 4.53143C15.5423 4.4552 15.2032 4.41271 14.8707 4.3827C14.5138 4.35047 14.0816 4.32651 13.6151 4.30843C12.681 4.27222 11.5784 4.2585 10.6042 4.25326L10.5961 5.75324ZM19.75 12C19.75 10.1971 19.7593 9.11777 19.4686 8.22315L18.042 8.68668C18.2407 9.29839 18.25 10.0803 18.25 12H19.75ZM15.3133 5.95801C16.6072 6.37841 17.6216 7.39282 18.042 8.68668L19.4686 8.22315C18.8998 6.47263 17.5274 5.1002 15.7768 4.53143L15.3133 5.95801ZM1.75 10V3.69388H0.25V10H1.75ZM3.28571 1.75C4.26886 1.75 4.95564 1.75073 5.49157 1.79991C6.01543 1.84799 6.32655 1.93784 6.57119 2.07668L7.3116 0.772155C6.80845 0.486584 6.26103 0.364222 5.62865 0.30619C5.00833 0.249266 4.24117 0.25 3.28571 0.25V1.75ZM6.57119 2.07668C7.15129 2.40593 7.64458 2.97318 7.94561 3.7099L9.33416 3.14252C8.92034 2.12975 8.21592 1.28542 7.3116 0.772155L6.57119 2.07668ZM3.28571 0.25C2.91184 0.25 2.58086 0.249266 2.30742 0.274359C2.02191 0.300559 1.73205 0.359258 1.45324 0.517504L2.19365 1.82203C2.21395 1.81051 2.26751 1.78432 2.44449 1.76808C2.63355 1.75073 2.88415 1.75 3.28571 1.75V0.25ZM1.75 3.69388C1.75 3.22692 1.75038 2.91317 1.76637 2.6711C1.78201 2.4345 1.81005 2.32337 1.83832 2.25417L0.449768 1.6868C0.333998 1.97012 0.290017 2.26374 0.269637 2.57222C0.249618 2.87524 0.25 3.24692 0.25 3.69388H1.75ZM1.45324 0.517504C0.994246 0.778013 0.649138 1.19887 0.449768 1.6868L1.83832 2.25417C1.9249 2.0423 2.05887 1.89853 2.19365 1.82203L1.45324 0.517504ZM9.34355 3.16549L9.33414 3.14246L7.94564 3.70997L7.95505 3.73301L9.34355 3.16549ZM10.6042 4.25326C10.1339 4.25073 9.62319 3.84961 9.34354 3.16547L7.95506 3.73303C8.35389 4.70874 9.27332 5.74611 10.5961 5.75324L10.6042 4.25326ZM7 12.75H13V11.25H7V12.75Z" fill="#0974A2"/>
</svg>
