<svg width="1248" height="80" viewBox="0 0 1248 80" fill="none" xmlns="http://www.w3.org/2000/svg">
<g clip-path="url(#clip0_2192_2327)">
<rect x="-5" width="1253" height="80" rx="8" fill="#FF7A00"/>
<path d="M572.824 42.282C572.944 42.282 573.004 42.342 573.004 42.462V44.82C573.004 44.94 572.944 45 572.824 45H572.014C572.098 45.252 572.14 45.546 572.14 45.882C572.14 46.542 571.978 47.148 571.654 47.7C571.33 48.252 570.892 48.69 570.34 49.014C569.788 49.338 569.176 49.5 568.504 49.5H564.382C563.554 49.5 562.792 49.296 562.096 48.888C561.4 48.48 560.848 47.928 560.44 47.232C560.032 46.536 559.828 45.774 559.828 44.946V40.572H562.42V44.802C562.42 45.342 562.612 45.804 562.996 46.188C563.38 46.584 563.842 46.782 564.382 46.782H568.558C568.81 46.782 569.02 46.692 569.188 46.512C569.368 46.332 569.458 46.122 569.458 45.882C569.458 45.642 569.368 45.432 569.188 45.252C569.02 45.084 568.81 45 568.558 45H564.832V42.282H572.824ZM581.096 31.266V33.588H578.792V31.266H581.096ZM579.458 34.506V36.81H577.154V34.506H579.458ZM580.394 36.81V34.506H582.716V36.81H580.394ZM585.29 37.746V45H582.05C581.186 45 580.49 44.688 579.962 44.064C579.446 44.712 578.732 45.036 577.82 45.036C576.92 45.036 576.212 44.718 575.696 44.082C575.18 44.694 574.472 45 573.572 45H572.816C572.696 45 572.636 44.94 572.636 44.82V42.462C572.636 42.342 572.696 42.282 572.816 42.282H573.572C573.812 42.282 574.01 42.204 574.166 42.048C574.334 41.88 574.418 41.676 574.418 41.436V38.286H576.992V41.472C576.992 41.712 577.07 41.916 577.226 42.084C577.382 42.24 577.58 42.318 577.82 42.318C578.06 42.318 578.258 42.24 578.414 42.084C578.57 41.916 578.648 41.712 578.648 41.472V38.286H581.24V41.436C581.24 41.676 581.318 41.88 581.474 42.048C581.63 42.204 581.822 42.282 582.05 42.282H582.698V37.746H585.29ZM586.91 34.434H589.214V36.738H586.91V34.434ZM584.048 47.934C584.9 47.442 585.506 47.046 585.866 46.746C586.226 46.446 586.466 46.122 586.586 45.774C586.706 45.426 586.766 44.922 586.766 44.262V38.286H589.358V44.262C589.358 45.27 589.232 46.098 588.98 46.746C588.728 47.394 588.296 47.97 587.684 48.474C587.072 48.99 586.184 49.536 585.02 50.112L584.048 47.934ZM599.259 42.282C599.379 42.282 599.439 42.342 599.439 42.462V44.82C599.439 44.94 599.379 45 599.259 45H598.449C598.353 45.828 598.107 46.524 597.711 47.088C597.327 47.652 596.769 48.156 596.037 48.6C595.317 49.056 594.309 49.56 593.013 50.112L592.203 47.826C593.271 47.37 594.063 46.998 594.579 46.71C595.107 46.422 595.467 46.152 595.659 45.9C595.851 45.648 595.947 45.348 595.947 45H594.777C594.057 45 593.397 44.838 592.797 44.514C592.197 44.19 591.717 43.746 591.357 43.182C591.009 42.606 590.835 41.964 590.835 41.256C590.835 40.536 591.009 39.876 591.357 39.276C591.717 38.676 592.197 38.202 592.797 37.854C593.397 37.494 594.057 37.314 594.777 37.314C595.473 37.314 596.109 37.494 596.685 37.854C597.261 38.202 597.711 38.676 598.035 39.276C598.359 39.876 598.521 40.536 598.521 41.256V42.282H599.259ZM595.947 41.238C595.947 40.89 595.833 40.602 595.605 40.374C595.389 40.146 595.113 40.032 594.777 40.032C594.429 40.032 594.135 40.146 593.895 40.374C593.667 40.602 593.553 40.89 593.553 41.238C593.553 41.586 593.667 41.874 593.895 42.102C594.135 42.33 594.429 42.444 594.777 42.444H595.947V41.238ZM605.014 37.35C605.734 37.35 606.394 37.512 606.994 37.836C607.594 38.16 608.068 38.61 608.416 39.186C608.776 39.75 608.956 40.386 608.956 41.094C608.956 41.802 608.776 42.462 608.416 43.074C608.068 43.674 607.588 44.154 606.976 44.514C606.376 44.862 605.722 45.036 605.014 45.036C604.534 45.036 604.084 44.952 603.664 44.784C603.244 44.616 602.866 44.382 602.53 44.082C602.014 44.694 601.318 45 600.442 45H599.254C599.134 45 599.074 44.94 599.074 44.82V42.462C599.074 42.342 599.134 42.282 599.254 42.282H600.442C600.67 42.282 600.862 42.204 601.018 42.048C601.186 41.88 601.27 41.676 601.27 41.436V39.924H600.154V37.35H605.014ZM605.014 42.318C605.362 42.318 605.65 42.204 605.878 41.976C606.106 41.736 606.22 41.442 606.22 41.094C606.22 40.758 606.106 40.482 605.878 40.266C605.65 40.038 605.362 39.924 605.014 39.924H603.826V41.094C603.826 41.442 603.934 41.736 604.15 41.976C604.378 42.204 604.666 42.318 605.014 42.318ZM607.687 32.004C607.687 31.452 607.867 31.014 608.227 30.69C608.575 30.354 609.007 30.186 609.523 30.186H614.077V32.148H609.865C609.721 32.148 609.607 32.19 609.523 32.274C609.439 32.346 609.397 32.46 609.397 32.616V33.48H607.687V32.004ZM610.189 33.588H612.781V45H610.189V33.588ZM621.933 49.05C621.105 49.05 620.343 48.846 619.647 48.438C618.951 48.03 618.399 47.478 617.991 46.782C617.583 46.086 617.379 45.324 617.379 44.496V40.122H619.971V44.352C619.971 44.892 620.163 45.354 620.547 45.738C620.931 46.134 621.393 46.332 621.933 46.332H626.055C626.343 46.332 626.577 46.236 626.757 46.044C626.937 45.864 627.027 45.63 627.027 45.342C627.027 45.126 626.961 44.928 626.829 44.748C626.697 44.568 626.517 44.454 626.289 44.406L621.645 43.344V40.986C621.645 40.302 621.819 39.666 622.167 39.078C622.527 38.478 623.007 38.004 623.607 37.656C624.219 37.308 624.873 37.134 625.569 37.134H628.917V39.708H625.533C625.185 39.708 624.879 39.84 624.615 40.104C624.363 40.356 624.237 40.656 624.237 41.004V41.292C625.341 41.532 626.061 41.694 626.397 41.778L627.117 41.94C627.873 42.168 628.491 42.606 628.971 43.254C629.451 43.902 629.691 44.628 629.691 45.432C629.691 46.092 629.529 46.698 629.205 47.25C628.881 47.802 628.437 48.24 627.873 48.564C627.321 48.888 626.715 49.05 626.055 49.05H621.933ZM634.562 45C633.938 45 633.368 44.85 632.852 44.55C632.336 44.238 631.928 43.824 631.628 43.308C631.328 42.78 631.178 42.21 631.178 41.598V32.868H633.77V41.436C633.77 41.676 633.848 41.88 634.004 42.048C634.16 42.204 634.352 42.282 634.58 42.282H635.57C635.69 42.282 635.75 42.342 635.75 42.462V44.82C635.75 44.94 635.69 45 635.57 45H634.562ZM645.146 37.368C645.866 37.368 646.526 37.53 647.126 37.854C647.726 38.178 648.2 38.628 648.548 39.204C648.908 39.768 649.088 40.404 649.088 41.112C649.088 41.82 648.908 42.474 648.548 43.074C648.188 43.662 647.702 44.13 647.09 44.478C646.49 44.826 645.842 45 645.146 45H635.57C635.45 45 635.39 44.94 635.39 44.82V42.462C635.39 42.342 635.45 42.282 635.57 42.282H637.442C637.31 41.922 637.244 41.556 637.244 41.184C637.244 40.764 637.328 40.35 637.496 39.942H636.344V37.368H645.146ZM639.89 41.112C639.89 41.424 640.004 41.7 640.232 41.94C640.46 42.168 640.736 42.282 641.06 42.282C641.384 42.282 641.66 42.168 641.888 41.94C642.116 41.7 642.23 41.424 642.23 41.112C642.23 40.788 642.116 40.512 641.888 40.284C641.66 40.056 641.384 39.942 641.06 39.942C640.736 39.942 640.46 40.056 640.232 40.284C640.004 40.512 639.89 40.788 639.89 41.112ZM645.146 42.282C645.494 42.282 645.782 42.174 646.01 41.958C646.25 41.73 646.37 41.448 646.37 41.112C646.37 40.776 646.25 40.5 646.01 40.284C645.782 40.056 645.494 39.942 645.146 39.942H644.264C644.396 40.362 644.462 40.776 644.462 41.184C644.462 41.568 644.408 41.934 644.3 42.282H645.146ZM658.884 42.282C659.004 42.282 659.064 42.342 659.064 42.462V44.82C659.064 44.94 659.004 45 658.884 45H658.074C657.978 45.828 657.732 46.524 657.336 47.088C656.952 47.652 656.394 48.156 655.662 48.6C654.942 49.056 653.934 49.56 652.638 50.112L651.828 47.826C652.896 47.37 653.688 46.998 654.204 46.71C654.732 46.422 655.092 46.152 655.284 45.9C655.476 45.648 655.572 45.348 655.572 45H654.402C653.682 45 653.022 44.838 652.422 44.514C651.822 44.19 651.342 43.746 650.982 43.182C650.634 42.606 650.46 41.964 650.46 41.256C650.46 40.536 650.634 39.876 650.982 39.276C651.342 38.676 651.822 38.202 652.422 37.854C653.022 37.494 653.682 37.314 654.402 37.314C655.098 37.314 655.734 37.494 656.31 37.854C656.886 38.202 657.336 38.676 657.66 39.276C657.984 39.876 658.146 40.536 658.146 41.256V42.282H658.884ZM655.572 41.238C655.572 40.89 655.458 40.602 655.23 40.374C655.014 40.146 654.738 40.032 654.402 40.032C654.054 40.032 653.76 40.146 653.52 40.374C653.292 40.602 653.178 40.89 653.178 41.238C653.178 41.586 653.292 41.874 653.52 42.102C653.76 42.33 654.054 42.444 654.402 42.444H655.572V41.238ZM658.879 45C658.759 45 658.699 44.94 658.699 44.82V42.462C658.699 42.342 658.759 42.282 658.879 42.282H660.823C661.051 42.282 661.243 42.198 661.399 42.03C661.567 41.862 661.651 41.664 661.651 41.436V37.746H664.225V41.598C664.225 42.21 664.075 42.78 663.775 43.308C663.475 43.824 663.067 44.238 662.551 44.55C662.035 44.85 661.465 45 660.841 45H658.879ZM658.897 46.548H661.201V48.852H658.897V46.548ZM662.137 46.548H664.459V48.852H662.137V46.548ZM669.967 42.282C670.231 42.282 670.453 42.21 670.633 42.066C670.813 41.91 670.903 41.7 670.903 41.436C670.903 41.364 670.867 41.208 670.795 40.968L669.085 36.324L671.533 35.406L673.747 41.544C673.951 42.036 674.275 42.282 674.719 42.282H674.827C674.947 42.282 675.007 42.342 675.007 42.462V44.82C675.007 44.94 674.947 45 674.827 45H674.593C674.101 45 673.663 44.904 673.279 44.712C672.895 44.52 672.607 44.28 672.415 43.992C672.031 44.376 671.665 44.64 671.317 44.784C670.969 44.928 670.519 45 669.967 45H665.683V42.282H669.967ZM674.822 45C674.702 45 674.642 44.94 674.642 44.82V42.462C674.642 42.342 674.702 42.282 674.822 42.282H676.766C676.994 42.282 677.186 42.198 677.342 42.03C677.51 41.862 677.594 41.664 677.594 41.436V37.746H680.168V41.598C680.168 42.21 680.018 42.78 679.718 43.308C679.418 43.824 679.01 44.238 678.494 44.55C677.978 44.85 677.408 45 676.784 45H674.822ZM674.84 46.548H677.144V48.852H674.84V46.548ZM678.08 46.548H680.402V48.852H678.08V46.548ZM682.994 47.826C684.062 47.37 684.854 46.998 685.37 46.71C685.898 46.422 686.258 46.152 686.45 45.9C686.642 45.648 686.738 45.348 686.738 45H685.568C684.848 45 684.188 44.838 683.588 44.514C682.988 44.19 682.508 43.746 682.148 43.182C681.8 42.606 681.626 41.964 681.626 41.256C681.626 40.536 681.8 39.876 682.148 39.276C682.508 38.676 682.988 38.202 683.588 37.854C684.188 37.494 684.848 37.314 685.568 37.314C686.264 37.314 686.9 37.494 687.476 37.854C688.052 38.202 688.502 38.676 688.826 39.276C689.15 39.876 689.312 40.536 689.312 41.256V43.884C689.312 45 689.138 45.9 688.79 46.584C688.454 47.28 687.902 47.88 687.134 48.384C686.378 48.9 685.268 49.476 683.804 50.112L682.994 47.826ZM686.738 41.238C686.738 40.89 686.624 40.602 686.396 40.374C686.18 40.146 685.904 40.032 685.568 40.032C685.22 40.032 684.926 40.146 684.686 40.374C684.458 40.602 684.344 40.89 684.344 41.238C684.344 41.586 684.458 41.874 684.686 42.102C684.926 42.33 685.22 42.444 685.568 42.444H686.738V41.238Z" fill="white"/>
<path d="M-18.4934 5.24809L6.2858 -17.4307C5.59947 -17.3063 4.92743 -17.1558 4.2554 -16.9923L-18.0144 3.38981C-18.1932 4.00488 -18.3576 4.61994 -18.4934 5.24809Z" fill="#F6F6F6" fill-opacity="0.4"/>
<path d="M-19.1226 11.0126C-19.1226 11.0715 -19.1226 11.1369 -19.1226 11.1958L12.7844 -18C12.7201 -18 12.6486 -18 12.5842 -18C12.1195 -18 11.662 -17.9869 11.2116 -17.9738L-19.0868 9.75628C-19.1083 10.175 -19.1226 10.5938 -19.1226 11.0126Z" fill="#F6F6F6" fill-opacity="0.4"/>
<path d="M-18.629 16.1293L18.1681 -17.5485C17.7248 -17.6205 17.2744 -17.6859 16.8312 -17.7383L-18.8363 14.9058C-18.7791 15.3114 -18.7076 15.7237 -18.629 16.1293Z" fill="#F6F6F6" fill-opacity="0.4"/>
<path d="M-17.4282 20.402L22.8363 -16.4493C22.4502 -16.5736 22.057 -16.6849 21.6638 -16.7896L-17.7999 19.3289C-17.6784 19.6888 -17.5569 20.0487 -17.4282 20.402Z" fill="#F6F6F6" fill-opacity="0.4"/>
<path d="M-15.6766 24.1774L26.9685 -14.8528C26.6254 -15.0099 26.275 -15.1669 25.9247 -15.3174L-16.1842 23.2221C-16.0198 23.5427 -15.8553 23.8633 -15.6766 24.1774Z" fill="#F6F6F6" fill-opacity="0.4"/>
<path d="M-13.4746 27.5406L30.6433 -12.8375C30.3358 -13.0338 30.0284 -13.2235 29.7139 -13.4067L-14.0966 26.69C-13.8964 26.9779 -13.6891 27.2593 -13.4746 27.5406Z" fill="#F6F6F6" fill-opacity="0.4"/>
<path d="M-10.8724 30.5374L33.9103 -10.4492C33.6386 -10.6717 33.367 -10.8942 33.0882 -11.1101L-11.5945 29.7849C-11.3586 30.0336 -11.1155 30.2888 -10.8724 30.5374Z" fill="#F6F6F6" fill-opacity="0.4"/>
<path d="M-7.87689 33.1744L36.7986 -7.71413C36.5627 -7.96932 36.3196 -8.2245 36.0765 -8.47314L-8.70618 32.5135C-8.43451 32.736 -8.16286 32.9584 -7.87689 33.1744Z" fill="#F6F6F6" fill-opacity="0.4"/>
<path d="M-4.50237 35.458L39.2938 -4.6257C39.0936 -4.9136 38.8863 -5.19496 38.6718 -5.47632L-5.43176 34.8953C-5.12435 35.085 -4.81694 35.2748 -4.50237 35.458Z" fill="#F6F6F6" fill-opacity="0.4"/>
<path d="M-0.706165 37.3622L41.367 -1.14454C41.2026 -1.46516 41.0382 -1.78578 40.8594 -2.09985L-1.75708 36.9042C-1.40677 37.0612 -1.05648 37.2117 -0.706165 37.3622Z" fill="#F6F6F6" fill-opacity="0.4"/>
<path d="M3.56187 38.8342L42.9827 2.75497C42.8683 2.39509 42.7396 2.03522 42.6109 1.68188L2.3894 38.494C2.77546 38.6183 3.16866 38.7295 3.56187 38.8342Z" fill="#F6F6F6" fill-opacity="0.4"/>
<path d="M8.4091 39.7765L44.0122 7.1913C43.955 6.77908 43.8835 6.36686 43.8049 5.96118L7.06506 39.5867C7.50832 39.6587 7.9587 39.7241 8.4091 39.7765Z" fill="#F6F6F6" fill-opacity="0.4"/>
<path d="M12.5843 40.0318C13.0776 40.0318 13.5637 40.0187 14.0427 39.9991L44.2482 12.354C44.2697 11.9091 44.284 11.4641 44.284 11.0192C44.284 10.9799 44.284 10.9472 44.284 10.908L12.4628 40.0318C12.4985 40.0252 12.5414 40.0318 12.5843 40.0318Z" fill="#F6F6F6" fill-opacity="0.4"/>
<path d="M21.0203 38.9847L43.1472 18.7335C43.3331 18.1184 43.4975 17.4968 43.6405 16.8687L18.9828 39.4362C19.6691 39.3053 20.3483 39.1548 21.0203 38.9847Z" fill="#F6F6F6" fill-opacity="0.4"/>
<path d="M40.0086 25.5647L28.4769 36.1189C33.2526 33.5801 37.2347 29.9356 40.0086 25.5647Z" fill="#F6F6F6" fill-opacity="0.4"/>
<path d="M237.071 51.1938L255.831 34.0239C252.5 35.7658 249.407 37.8498 246.609 40.2138L243.834 42.754C241.251 45.315 238.974 48.1455 237.071 51.1938Z" fill="#F6F6F6" fill-opacity="0.4"/>
<path d="M231.474 64.8385L270.739 28.9021C269.652 29.0991 268.587 29.3376 267.522 29.5968L232.233 61.8939C231.95 62.8685 231.69 63.8431 231.474 64.8385Z" fill="#F6F6F6" fill-opacity="0.4"/>
<path d="M230.477 73.9728C230.477 74.0662 230.477 74.1698 230.477 74.2631L281.037 28C280.935 28 280.821 28 280.719 28C279.983 28 279.258 28.0207 278.544 28.0415L230.534 71.9821C230.5 72.6457 230.477 73.3093 230.477 73.9728Z" fill="#F6F6F6" fill-opacity="0.4"/>
<path d="M231.259 82.0809L289.567 28.7155C288.865 28.6014 288.151 28.4977 287.449 28.4148L230.931 80.142C231.021 80.7848 231.135 81.438 231.259 82.0809Z" fill="#F6F6F6" fill-opacity="0.4"/>
<path d="M233.162 88.8514L296.965 30.4574C296.353 30.2604 295.73 30.0841 295.107 29.9182L232.573 87.151C232.766 87.7212 232.958 88.2915 233.162 88.8514Z" fill="#F6F6F6" fill-opacity="0.4"/>
<path d="M235.938 94.8338L303.512 32.9871C302.969 32.7383 302.413 32.4894 301.858 32.251L235.133 93.32C235.394 93.828 235.654 94.3361 235.938 94.8338Z" fill="#F6F6F6" fill-opacity="0.4"/>
<path d="M239.427 100.163L309.336 36.1806C308.848 35.8696 308.361 35.5689 307.863 35.2786L238.442 98.8152C238.759 99.2714 239.087 99.7173 239.427 100.163Z" fill="#F6F6F6" fill-opacity="0.4"/>
<path d="M243.55 104.912L314.512 39.9649C314.082 39.6124 313.651 39.2599 313.21 38.9177L242.406 103.719C242.78 104.113 243.165 104.518 243.55 104.912Z" fill="#F6F6F6" fill-opacity="0.4"/>
<path d="M248.297 109.09L319.089 44.2989C318.715 43.8945 318.33 43.4902 317.945 43.0962L246.983 108.043C247.413 108.395 247.844 108.748 248.297 109.09Z" fill="#F6F6F6" fill-opacity="0.4"/>
<path d="M253.644 112.709L323.043 49.1928C322.726 48.7366 322.397 48.2908 322.057 47.845L252.172 111.817C252.659 112.118 253.146 112.418 253.644 112.709Z" fill="#F6F6F6" fill-opacity="0.4"/>
<path d="M259.66 115.726L326.328 54.7086C326.068 54.2005 325.807 53.6925 325.524 53.1948L257.995 115C258.55 115.249 259.105 115.487 259.66 115.726Z" fill="#F6F6F6" fill-opacity="0.4"/>
<path d="M266.423 118.059L328.888 60.8881C328.707 60.3179 328.503 59.7476 328.299 59.1877L264.565 117.52C265.177 117.717 265.8 117.893 266.423 118.059Z" fill="#F6F6F6" fill-opacity="0.4"/>
<path d="M274.104 119.552L330.52 67.9177C330.429 67.2645 330.316 66.6113 330.191 65.9685L271.974 119.251C272.676 119.365 273.39 119.469 274.104 119.552Z" fill="#F6F6F6" fill-opacity="0.4"/>
<path d="M280.719 119.956C281.501 119.956 282.271 119.936 283.03 119.904L330.894 76.0985C330.928 75.3935 330.95 74.6884 330.95 73.9834C330.95 73.9212 330.95 73.8693 330.95 73.8071L280.527 119.956C280.583 119.946 280.651 119.956 280.719 119.956Z" fill="#F6F6F6" fill-opacity="0.4"/>
<path d="M904.465 0.851372L968.268 -57.5426C967.656 -57.7396 967.033 -57.9159 966.41 -58.0818L903.876 -0.849022C904.069 -0.278767 904.262 0.291489 904.465 0.851372Z" fill="#F6F6F6" fill-opacity="0.4"/>
<path d="M907.241 6.83377L974.816 -55.0129C974.272 -55.2617 973.717 -55.5106 973.162 -55.749L906.437 5.32C906.697 5.82805 906.958 6.33609 907.241 6.83377Z" fill="#F6F6F6" fill-opacity="0.4"/>
<path d="M910.73 12.1631L980.639 -51.8194C980.152 -52.1304 979.664 -52.4311 979.166 -52.7214L909.745 10.8152C910.062 11.2714 910.39 11.7173 910.73 12.1631Z" fill="#F6F6F6" fill-opacity="0.4"/>
<path d="M914.854 16.9117L985.816 -48.0351C985.385 -48.3876 984.955 -48.7401 984.513 -49.0823L913.709 15.7193C914.083 16.1133 914.468 16.5177 914.854 16.9117Z" fill="#F6F6F6" fill-opacity="0.4"/>
<path d="M919.6 21.0901L990.392 -43.7011C990.018 -44.1055 989.633 -44.5098 989.248 -44.9038L918.286 20.0429C918.717 20.3955 919.147 20.748 919.6 21.0901Z" fill="#F6F6F6" fill-opacity="0.4"/>
<path d="M924.947 24.7088L994.346 -38.8072C994.029 -39.2634 993.7 -39.7092 993.36 -40.155L923.475 23.8171C923.962 24.1178 924.449 24.4185 924.947 24.7088Z" fill="#F6F6F6" fill-opacity="0.4"/>
<path d="M930.963 27.7258L997.631 -33.2914C997.371 -33.7995 997.11 -34.3075 996.827 -34.8052L929.298 27C929.853 27.2488 930.408 27.4873 930.963 27.7258Z" fill="#F6F6F6" fill-opacity="0.4"/>
<path d="M937.726 30.0587L1000.19 -27.1119C1000.01 -27.6821 999.806 -28.2524 999.603 -28.8123L935.868 29.5195C936.48 29.7165 937.103 29.8928 937.726 30.0587Z" fill="#F6F6F6" fill-opacity="0.4"/>
<path d="M945.407 31.5517L1001.82 -20.0823C1001.73 -20.7355 1001.62 -21.3887 1001.49 -22.0315L943.277 31.251C943.98 31.365 944.693 31.4687 945.407 31.5517Z" fill="#F6F6F6" fill-opacity="0.4"/>
<path d="M952.023 31.9562C952.804 31.9562 953.575 31.9355 954.334 31.9044L1002.2 -11.9015C1002.23 -12.6065 1002.25 -13.3116 1002.25 -14.0166C1002.25 -14.0788 1002.25 -14.1307 1002.25 -14.1929L951.83 31.9562C951.887 31.9459 951.955 31.9562 952.023 31.9562Z" fill="#F6F6F6" fill-opacity="0.4"/>
<path d="M965.39 30.2971L1000.45 -1.79261C1000.75 -2.76722 1001.01 -3.75221 1001.23 -4.74756L962.162 31.0126C963.249 30.8052 964.325 30.5667 965.39 30.2971Z" fill="#F6F6F6" fill-opacity="0.4"/>
<path d="M995.479 9.03198L977.206 25.756C984.774 21.7331 991.084 15.958 995.479 9.03198Z" fill="#F6F6F6" fill-opacity="0.4"/>
<path d="M1189.09 42.3412L1197.46 34.6858C1195.97 35.4624 1194.59 36.3916 1193.34 37.4456L1192.11 38.5782C1190.96 39.7201 1189.94 40.9821 1189.09 42.3412Z" fill="#F6F6F6" fill-opacity="0.4"/>
<path d="M1186.6 48.4249L1204.1 32.4021C1203.62 32.4899 1203.14 32.5963 1202.67 32.7118L1186.93 47.112C1186.81 47.5465 1186.69 47.9811 1186.6 48.4249Z" fill="#F6F6F6" fill-opacity="0.4"/>
<path d="M1186.15 52.4977C1186.15 52.5393 1186.15 52.5855 1186.15 52.6271L1208.69 32C1208.65 32 1208.6 32 1208.55 32C1208.22 32 1207.9 32.0092 1207.58 32.0185L1186.18 51.6101C1186.16 51.906 1186.15 52.2018 1186.15 52.4977Z" fill="#F6F6F6" fill-opacity="0.4"/>
<path d="M1186.5 56.1126L1212.5 32.3189C1212.18 32.268 1211.87 32.2218 1211.55 32.1848L1186.35 55.2482C1186.39 55.5348 1186.44 55.826 1186.5 56.1126Z" fill="#F6F6F6" fill-opacity="0.4"/>
<path d="M1187.35 59.1315L1215.8 33.0956C1215.52 33.0078 1215.25 32.9292 1214.97 32.8552L1187.09 58.3733C1187.17 58.6276 1187.26 58.8818 1187.35 59.1315Z" fill="#F6F6F6" fill-opacity="0.4"/>
<path d="M1188.59 61.7987L1218.72 34.2235C1218.47 34.1125 1218.23 34.0016 1217.98 33.8953L1188.23 61.1238C1188.34 61.3503 1188.46 61.5769 1188.59 61.7987Z" fill="#F6F6F6" fill-opacity="0.4"/>
<path d="M1190.14 64.1751L1221.31 35.6475C1221.09 35.5089 1220.88 35.3748 1220.65 35.2454L1189.7 63.5741C1189.84 63.7776 1189.99 63.9763 1190.14 64.1751Z" fill="#F6F6F6" fill-opacity="0.4"/>
<path d="M1191.98 66.2923L1223.62 37.3348C1223.43 37.1777 1223.24 37.0205 1223.04 36.8679L1191.47 65.7607C1191.64 65.9364 1191.81 66.1167 1191.98 66.2923Z" fill="#F6F6F6" fill-opacity="0.4"/>
<path d="M1194.1 68.1554L1225.66 39.2672C1225.49 39.0869 1225.32 38.9066 1225.15 38.731L1193.51 67.6884C1193.7 67.8456 1193.89 68.0028 1194.1 68.1554Z" fill="#F6F6F6" fill-opacity="0.4"/>
<path d="M1196.48 69.7687L1227.42 41.4491C1227.28 41.2457 1227.14 41.0469 1226.98 40.8481L1195.82 69.3711C1196.04 69.5051 1196.26 69.6392 1196.48 69.7687Z" fill="#F6F6F6" fill-opacity="0.4"/>
<path d="M1199.16 71.114L1228.89 43.9086C1228.77 43.6821 1228.66 43.4555 1228.53 43.2336L1198.42 70.7904C1198.67 70.9014 1198.92 71.0077 1199.16 71.114Z" fill="#F6F6F6" fill-opacity="0.4"/>
<path d="M1202.18 72.154L1230.03 46.6637C1229.95 46.4094 1229.86 46.1552 1229.77 45.9055L1201.35 71.9136C1201.62 72.0015 1201.9 72.0801 1202.18 72.154Z" fill="#F6F6F6" fill-opacity="0.4"/>
<path d="M1205.6 72.8198L1230.76 49.7981C1230.72 49.5068 1230.67 49.2156 1230.61 48.929L1204.65 72.6857C1204.97 72.7366 1205.28 72.7828 1205.6 72.8198Z" fill="#F6F6F6" fill-opacity="0.4"/>
<path d="M1208.55 73.0001C1208.9 73.0001 1209.24 72.9909 1209.58 72.977L1230.92 53.4455C1230.94 53.1311 1230.95 52.8168 1230.95 52.5024C1230.95 52.4747 1230.95 52.4516 1230.95 52.4238L1208.47 73.0001C1208.49 72.9955 1208.52 73.0001 1208.55 73.0001Z" fill="#F6F6F6" fill-opacity="0.4"/>
<path d="M1214.51 72.2605L1230.15 57.9528C1230.28 57.5182 1230.39 57.079 1230.49 56.6353L1213.07 72.5794C1213.56 72.487 1214.04 72.3807 1214.51 72.2605Z" fill="#F6F6F6" fill-opacity="0.4"/>
<path d="M1227.93 62.7791L1219.78 70.2357C1223.16 68.442 1225.97 65.8671 1227.93 62.7791Z" fill="#F6F6F6" fill-opacity="0.4"/>
</g>
<defs>
<clipPath id="clip0_2192_2327">
<rect width="1248" height="80" rx="8" fill="white"/>
</clipPath>
</defs>
</svg>
