<svg width="60" height="80" viewBox="0 0 60 80" fill="none" xmlns="http://www.w3.org/2000/svg">
<path d="M29.2274 69.9426C40.8829 45.0609 6.80013 25.1145 24.1829 7.57227C15.0541 23.1106 52.0844 47.7379 29.2274 69.9426ZM35.4575 11.2606C33.6531 9.79335 30.7422 10.4479 28.9561 12.7217C27.17 14.9955 27.1852 18.0294 28.9896 19.4997C30.794 20.967 33.7049 20.3125 35.491 18.0387C37.2771 15.7648 37.2619 12.731 35.4575 11.2606Z" fill="url(#paint0_linear_2370_4681)"/>
<path d="M29.8614 26.6994C33.2294 22.6263 42.6416 18.0725 48.4572 20.5324C44.8027 20.7093 35.6526 26.6435 32.1565 30.9647C31.9066 30.5521 29.8614 26.6994 29.8614 26.6994ZM16.0722 21.6616C14.917 25.0522 13.4387 32.7019 17.5017 41.2822C22.4517 51.7362 25.7557 53.5323 28.6269 64.2593C29.8614 45.3677 18.599 37.1472 16.0722 21.6616Z" fill="url(#paint1_linear_2370_4681)"/>
<defs>
<linearGradient id="paint0_linear_2370_4681" x1="19.1423" y1="38.7591" x2="36.8209" y2="38.7591" gradientUnits="userSpaceOnUse">
<stop stop-color="#4BAAD4"/>
<stop offset="1" stop-color="#006C9B"/>
</linearGradient>
<linearGradient id="paint1_linear_2370_4681" x1="14.8306" y1="42.049" x2="48.457" y2="42.049" gradientUnits="userSpaceOnUse">
<stop stop-color="#CFE95E"/>
<stop offset="1" stop-color="#7DBB3E"/>
</linearGradient>
</defs>
</svg>
