<svg width="46" height="59" viewBox="0 0 46 59" fill="none" xmlns="http://www.w3.org/2000/svg">
<path d="M22.4265 51.907C31.0765 33.4413 5.78238 18.6384 18.6828 5.61963C11.908 17.1512 39.3895 35.4281 22.4265 51.907ZM27.0501 8.35691C25.711 7.26798 23.5507 7.75374 22.2252 9.44123C20.8996 11.1287 20.9109 13.3802 22.25 14.4715C23.5892 15.5604 25.7494 15.0746 27.075 13.3871C28.4005 11.6997 28.3892 9.44814 27.0501 8.35691Z" fill="url(#paint0_linear_5400_5142)"/>
<path d="M22.897 19.8148C25.3965 16.7921 32.3817 13.4125 36.6977 15.2381C33.9855 15.3693 27.1949 19.7734 24.6003 22.9803C24.4148 22.6741 22.897 19.8148 22.897 19.8148ZM12.6635 16.0761C11.8062 18.5924 10.7091 24.2695 13.7244 30.6373C17.398 38.3956 19.85 39.7286 21.9809 47.6895C22.897 33.6693 14.5387 27.5685 12.6635 16.0761Z" fill="url(#paint1_linear_5400_5142)"/>
<defs>
<linearGradient id="paint0_linear_5400_5142" x1="14.942" y1="28.7646" x2="28.062" y2="28.7646" gradientUnits="userSpaceOnUse">
<stop stop-color="#4BAAD4"/>
<stop offset="1" stop-color="#006C9B"/>
</linearGradient>
<linearGradient id="paint1_linear_5400_5142" x1="11.7421" y1="31.2063" x2="36.6975" y2="31.2063" gradientUnits="userSpaceOnUse">
<stop stop-color="#CFE95E"/>
<stop offset="1" stop-color="#7DBB3E"/>
</linearGradient>
</defs>
</svg>
