<svg width="20" height="23" viewBox="0 0 20 23" fill="none" xmlns="http://www.w3.org/2000/svg">
<path d="M3.06107 21.0451L3.50191 20.4383L3.06107 21.0451ZM1.95491 19.9389L2.56168 19.4981L1.95491 19.9389ZM18.0451 19.9389L17.4383 19.4981L18.0451 19.9389ZM16.9389 21.0451L16.4981 20.4383L16.9389 21.0451ZM16.9389 4.95491L16.4981 5.56168L16.9389 4.95491ZM18.0451 6.06107L17.4383 6.50191L18.0451 6.06107ZM3.06107 4.95491L3.50191 5.56168H3.50191L3.06107 4.95491ZM1.95491 6.06107L2.56168 6.50191L1.95491 6.06107ZM13.5451 1.24472L13.3134 1.95801L13.5451 1.24472ZM16.7553 4.45492L16.042 4.68668V4.68668L16.7553 4.45492ZM6.45497 1.24472L6.68673 1.95801L6.45497 1.24472ZM3.24477 4.45492L3.95806 4.68668L3.24477 4.45492ZM6 15.25C5.58579 15.25 5.25 15.5858 5.25 16C5.25 16.4142 5.58579 16.75 6 16.75V15.25ZM14 16.75C14.4142 16.75 14.75 16.4142 14.75 16C14.75 15.5858 14.4142 15.25 14 15.25V16.75ZM10 21.25C8.10843 21.25 6.74999 21.249 5.69804 21.135C4.66013 21.0225 4.00992 20.8074 3.50191 20.4383L2.62023 21.6518C3.42656 22.2377 4.37094 22.5 5.53648 22.6263C6.68798 22.751 8.14184 22.75 10 22.75V21.25ZM0.25 13C0.25 14.8582 0.248971 16.312 0.373728 17.4635C0.500006 18.6291 0.762324 19.5734 1.34815 20.3798L2.56168 19.4981C2.19259 18.9901 1.97745 18.3399 1.865 17.302C1.75103 16.25 1.75 14.8916 1.75 13H0.25ZM3.50191 20.4383C3.14111 20.1762 2.82382 19.8589 2.56168 19.4981L1.34815 20.3798C1.70281 20.8679 2.13209 21.2972 2.62023 21.6518L3.50191 20.4383ZM18.25 13C18.25 14.8916 18.249 16.25 18.135 17.302C18.0225 18.3399 17.8074 18.9901 17.4383 19.4981L18.6518 20.3798C19.2377 19.5734 19.5 18.6291 19.6263 17.4635C19.751 16.312 19.75 14.8582 19.75 13H18.25ZM10 22.75C11.8582 22.75 13.312 22.751 14.4635 22.6263C15.6291 22.5 16.5734 22.2377 17.3798 21.6518L16.4981 20.4383C15.9901 20.8074 15.3399 21.0225 14.302 21.135C13.25 21.249 11.8916 21.25 10 21.25V22.75ZM17.4383 19.4981C17.1762 19.8589 16.8589 20.1762 16.4981 20.4383L17.3798 21.6518C17.8679 21.2972 18.2972 20.8679 18.6518 20.3798L17.4383 19.4981ZM19.75 13C19.75 11.1418 19.751 9.68798 19.6263 8.53648C19.5 7.37094 19.2377 6.42656 18.6518 5.62023L17.4383 6.50191C17.8074 7.00992 18.0225 7.66013 18.135 8.69804C18.249 9.74999 18.25 11.1084 18.25 13H19.75ZM16.4981 5.56168C16.8589 5.82382 17.1762 6.14111 17.4383 6.50191L18.6518 5.62023C18.2972 5.13209 17.8679 4.70281 17.3798 4.34815L16.4981 5.56168ZM1.75 13C1.75 11.1084 1.75103 9.74999 1.865 8.69804C1.97745 7.66013 2.19259 7.00992 2.56168 6.50191L1.34815 5.62023C0.762324 6.42656 0.500006 7.37094 0.373728 8.53648C0.248971 9.68798 0.25 11.1418 0.25 13H1.75ZM2.62023 4.34815C2.13209 4.70281 1.70281 5.13209 1.34815 5.62023L2.56168 6.50191C2.82382 6.14111 3.14111 5.82382 3.50191 5.56168L2.62023 4.34815ZM10.0001 1.75C11.9197 1.75 12.7017 1.75925 13.3134 1.95801L13.7769 0.531425C12.8823 0.240747 11.803 0.25 10.0001 0.25V1.75ZM13.3134 1.95801C14.6072 2.37841 15.6216 3.39282 16.042 4.68668L17.4686 4.22315C16.8998 2.47263 15.5274 1.1002 13.7769 0.531425L13.3134 1.95801ZM10.0001 0.25C8.19715 0.25 7.11782 0.240747 6.22321 0.531425L6.68673 1.95801C7.29844 1.75925 8.0804 1.75 10.0001 1.75V0.25ZM6.22321 0.531425C4.47269 1.1002 3.10026 2.47263 2.53148 4.22315L3.95806 4.68668C4.37846 3.39282 5.39287 2.37841 6.68673 1.95801L6.22321 0.531425ZM3.86748 5.04567C3.89261 4.91348 3.9226 4.79583 3.95806 4.68668L2.53148 4.22315C2.47453 4.39842 2.42955 4.57785 2.39387 4.76553L3.86748 5.04567ZM10 3.25C8.1738 3.25 6.73872 3.24906 5.59818 3.36719C4.44603 3.48652 3.50714 3.73401 2.70441 4.28851L3.55694 5.52269C4.0652 5.17159 4.71896 4.96628 5.75271 4.85921C6.79808 4.75094 8.14216 4.75 10 4.75V3.25ZM2.70441 4.28851C2.67613 4.30805 2.64807 4.32793 2.62023 4.34815L3.50191 5.56168C3.52013 5.54844 3.53847 5.53545 3.55694 5.52269L2.70441 4.28851ZM17.6063 4.76563C17.5706 4.57791 17.5256 4.39845 17.4686 4.22315L16.042 4.68668C16.0775 4.79585 16.1075 4.91352 16.1326 5.04574L17.6063 4.76563ZM10 4.75C11.8579 4.75 13.202 4.75094 14.2474 4.85922C15.2811 4.9663 15.9349 5.17163 16.4432 5.52275L17.2957 4.28862C16.493 3.73405 15.5541 3.48655 14.4019 3.3672C13.2614 3.24906 11.8263 3.25 10 3.25V4.75ZM16.4432 5.52275C16.4616 5.53549 16.4799 5.54846 16.4981 5.56168L17.3798 4.34815C17.352 4.32797 17.324 4.30812 17.2957 4.28862L16.4432 5.52275ZM6 16.75H14V15.25H6V16.75Z" fill="black"/>
</svg>
