<svg width="20" height="22" viewBox="0 0 20 22" fill="none" xmlns="http://www.w3.org/2000/svg">
<path d="M6.0004 10L6.4004 10.4C8.38863 12.3882 11.6122 12.3882 13.6004 10.4L14.0004 10M14.0004 5.08268V5C14.0004 2.79086 12.2095 1 10.0004 1C7.79126 1 6.0004 2.79086 6.0004 5V5.08268M14.0004 5.08268C13.2137 5 12.2112 5 10.8125 5H9.1883C7.78963 5 6.78711 5 6.0004 5.08268M14.0004 5.08268C14.6025 5.14596 15.0781 5.25766 15.5082 5.45483C16.3825 5.85563 17.1227 6.50008 17.6399 7.31092C18.2269 8.23109 18.3968 9.45387 18.7364 11.8995C19.1726 15.0399 19.3907 16.6101 18.9112 17.8297C18.4902 18.9003 17.7129 19.793 16.7104 20.3573C15.5684 21 13.9831 21 10.8125 21H9.18831C6.01771 21 4.43241 21 3.29044 20.3573C2.2879 19.793 1.51061 18.9003 1.08963 17.8297C0.610105 16.6101 0.828191 15.0399 1.26436 11.8995C1.60403 9.45387 1.77386 8.23109 2.36086 7.31092C2.87812 6.50008 3.61826 5.85563 4.49256 5.45483C4.92268 5.25766 5.39835 5.14596 6.0004 5.08268" stroke="black" stroke-width="1.5" stroke-linecap="round"/>
</svg>
