<svg width="139" height="1024" viewBox="0 0 139 1024" fill="none" xmlns="http://www.w3.org/2000/svg">
<g opacity="0.2">
<path d="M3 512.996L69.724 551.594L136.448 512.996V435.799L69.724 397.201L3 435.799V512.996Z" fill="#FFE031"/>
<path d="M3 590.192L69.724 628.79L136.448 590.192V512.996L69.724 474.397L3 512.996V590.192Z" stroke="#BBBBBB" stroke-width="4.09601" stroke-miterlimit="10"/>
<path d="M47.4417 662.239H36.5259V707.034H47.4417V662.239Z" fill="#BBBBBB"/>
<path d="M75.1718 662.239H64.2559V707.034H75.1718V662.239Z" fill="#BBBBBB"/>
<path d="M102.902 662.239H91.9858V707.034H102.902V662.239Z" fill="#BBBBBB"/>
<path d="M47.4417 726.035H36.5259V770.83H47.4417V726.035Z" fill="#BBBBBB"/>
<path d="M75.1718 726.035H64.2559V770.83H75.1718V726.035Z" fill="#BBBBBB"/>
<path d="M75.1718 789.812H64.2559V834.608H75.1718V789.812Z" fill="#BBBBBB"/>
<path d="M102.902 789.812H91.9858V834.608H102.902V789.812Z" fill="#BBBBBB"/>
<path d="M47.4417 853.608H36.5259V898.404H47.4417V853.608Z" fill="#BBBBBB"/>
<path d="M102.902 853.608H91.9858V898.404H102.902V853.608Z" fill="#BBBBBB"/>
<path d="M47.4417 917.406H36.5259V962.202H47.4417V917.406Z" fill="#BBBBBB"/>
<path d="M75.1718 917.406H64.2559V962.202H75.1718V917.406Z" fill="#BBBBBB"/>
<path d="M47.4417 981.204H36.5259V1026H47.4417V981.204Z" fill="#BBBBBB"/>
<path d="M75.1718 981.204H64.2559V1026H75.1718V981.204Z" fill="#BBBBBB"/>
<path d="M102.902 981.204H91.9858V1026H102.902V981.204Z" fill="#BBBBBB"/>
<path d="M92.003 363.754H102.919V318.959H92.003V363.754Z" fill="#FFE031"/>
<path d="M64.2765 363.754H75.1924V318.959H64.2765V363.754Z" fill="#FFE031"/>
<path d="M36.55 363.754H47.4658L47.4658 318.959H36.55L36.55 363.754Z" fill="#FFE031"/>
<path d="M92.003 299.967H102.919V255.172H92.003V299.967Z" fill="#FFE031"/>
<path d="M64.2765 299.967H75.1924V255.172H64.2765V299.967Z" fill="#FFE031"/>
<path d="M64.2765 236.179H75.1924V191.383H64.2765V236.179Z" fill="#FFE031"/>
<path d="M36.55 236.179H47.4658L47.4658 191.383H36.55L36.55 236.179Z" fill="#FFE031"/>
<path d="M92.003 172.369H102.919V127.574H92.003V172.369Z" fill="#FFE031"/>
<path d="M36.55 172.369H47.4658L47.4658 127.574H36.55L36.55 172.369Z" fill="#FFE031"/>
<path d="M92.003 108.584H102.919V63.7887H92.003V108.584Z" fill="#FFE031"/>
<path d="M64.2765 108.584H75.1924V63.7887H64.2765V108.584Z" fill="#FFE031"/>
<path d="M92.003 44.7949H102.919V-0.000328064H92.003V44.7949Z" fill="#FFE031"/>
<path d="M64.2765 44.7949H75.1924V-0.000328064H64.2765V44.7949Z" fill="#FFE031"/>
<path d="M36.55 44.7949H47.4658L47.4658 -0.000328064H36.55L36.55 44.7949Z" fill="#FFE031"/>
</g>
</svg>
