<svg width="1248" height="80" viewBox="0 0 1248 80" fill="none" xmlns="http://www.w3.org/2000/svg">
<g clip-path="url(#clip0_4535_4409)">
<rect width="1248" height="80" rx="8" fill="#FF7A00"/>
<path d="M592.112 36.964H594.416V39.286H592.112V36.964ZM595.352 36.964H597.656V39.286H595.352V36.964ZM592.382 46C591.554 46 590.792 45.796 590.096 45.388C589.4 44.98 588.848 44.428 588.44 43.732C588.032 43.036 587.828 42.274 587.828 41.446V39.286H590.42V41.302C590.42 41.842 590.612 42.31 590.996 42.706C591.38 43.09 591.842 43.282 592.382 43.282H598.106C598.454 43.282 598.736 43.168 598.952 42.94C599.18 42.7 599.294 42.406 599.294 42.058V39.286H601.886V42.058C601.886 42.778 601.718 43.438 601.382 44.038C601.058 44.638 600.608 45.118 600.032 45.478C599.456 45.826 598.814 46 598.106 46H592.382ZM608.211 43.282C608.439 43.282 608.631 43.204 608.787 43.048C608.955 42.88 609.039 42.682 609.039 42.454V34.048H611.613V42.598C611.613 43.21 611.463 43.78 611.163 44.308C610.863 44.824 610.455 45.238 609.939 45.55C609.423 45.85 608.853 46 608.229 46H603.297V43.282H608.211ZM603.315 34.75L605.817 34.102L607.761 42.076L605.259 42.724L603.315 34.75ZM621.511 43.282C621.631 43.282 621.691 43.342 621.691 43.462V45.82C621.691 45.94 621.631 46 621.511 46H620.701C620.605 46.828 620.359 47.524 619.963 48.088C619.579 48.652 619.021 49.156 618.289 49.6C617.569 50.056 616.561 50.56 615.265 51.112L614.455 48.826C615.523 48.37 616.315 47.998 616.831 47.71C617.359 47.422 617.719 47.152 617.911 46.9C618.103 46.648 618.199 46.348 618.199 46H617.029C616.309 46 615.649 45.838 615.049 45.514C614.449 45.19 613.969 44.746 613.609 44.182C613.261 43.606 613.087 42.964 613.087 42.256C613.087 41.536 613.261 40.876 613.609 40.276C613.969 39.676 614.449 39.202 615.049 38.854C615.649 38.494 616.309 38.314 617.029 38.314C617.725 38.314 618.361 38.494 618.937 38.854C619.513 39.202 619.963 39.676 620.287 40.276C620.611 40.876 620.773 41.536 620.773 42.256V43.282H621.511ZM618.199 42.238C618.199 41.89 618.085 41.602 617.857 41.374C617.641 41.146 617.365 41.032 617.029 41.032C616.681 41.032 616.387 41.146 616.147 41.374C615.919 41.602 615.805 41.89 615.805 42.238C615.805 42.586 615.919 42.874 616.147 43.102C616.387 43.33 616.681 43.444 617.029 43.444H618.199V42.238ZM637.472 43.282C637.592 43.282 637.652 43.342 637.652 43.462V45.82C637.652 45.94 637.592 46 637.472 46H636.716C635.792 46 635.066 45.664 634.538 44.992C634.166 45.316 633.752 45.568 633.296 45.748C632.852 45.916 632.384 46 631.892 46H627.608C626.384 46 625.406 45.55 624.674 44.65C624.434 45.082 624.11 45.418 623.702 45.658C623.294 45.886 622.814 46 622.262 46H621.506C621.386 46 621.326 45.94 621.326 45.82V43.462C621.326 43.342 621.386 43.282 621.506 43.282H622.262C622.502 43.282 622.7 43.204 622.856 43.048C623.024 42.88 623.108 42.676 623.108 42.436V39.286H625.682V41.068L629.426 38.836C629.918 38.536 630.338 38.32 630.686 38.188C631.034 38.056 631.436 37.99 631.892 37.99C632.612 37.99 633.278 38.17 633.89 38.53C634.502 38.89 634.988 39.382 635.348 40.006C635.708 40.618 635.888 41.284 635.888 42.004V42.022V42.436C635.888 42.676 635.966 42.88 636.122 43.048C636.278 43.204 636.476 43.282 636.716 43.282H637.472ZM631.892 43.282C632.264 43.282 632.576 43.15 632.828 42.886C633.092 42.622 633.224 42.31 633.224 41.95C633.224 41.566 633.092 41.236 632.828 40.96C632.564 40.684 632.234 40.546 631.838 40.546C631.67 40.546 631.484 40.588 631.28 40.672C631.088 40.744 630.824 40.888 630.488 41.104L626.906 43.246C627.05 43.27 627.152 43.282 627.212 43.282H631.892ZM637.467 46C637.347 46 637.287 45.94 637.287 45.82V43.462C637.287 43.342 637.347 43.282 637.467 43.282H641.211C642.147 43.282 642.927 42.994 643.551 42.418L645.297 40.834L642.795 39.628C642.555 39.532 642.375 39.484 642.255 39.484C642.099 39.484 641.943 39.52 641.787 39.592C641.643 39.664 641.517 39.76 641.409 39.88L639.753 41.716L637.953 40.132L639.609 38.116C639.957 37.72 640.359 37.426 640.815 37.234C641.283 37.03 641.757 36.928 642.237 36.928C642.573 36.928 642.855 36.97 643.083 37.054C643.323 37.126 643.563 37.222 643.803 37.342L647.673 39.142C647.745 39.178 647.841 39.196 647.961 39.196H649.887V41.716H647.817L647.493 42.004V42.436C647.493 42.676 647.571 42.88 647.727 43.048C647.895 43.204 648.099 43.282 648.339 43.282H650.409C650.529 43.282 650.589 43.342 650.589 43.462V45.82C650.589 45.94 650.529 46 650.409 46H648.339C647.631 46 647.037 45.802 646.557 45.406C646.089 45.01 645.771 44.488 645.603 43.84L644.973 44.434C644.421 44.95 643.785 45.34 643.065 45.604C642.345 45.868 641.601 46 640.833 46H637.467ZM656.164 38.35C656.884 38.35 657.544 38.512 658.144 38.836C658.744 39.16 659.218 39.61 659.566 40.186C659.926 40.75 660.106 41.386 660.106 42.094C660.106 42.802 659.926 43.462 659.566 44.074C659.218 44.674 658.738 45.154 658.126 45.514C657.526 45.862 656.872 46.036 656.164 46.036C655.684 46.036 655.234 45.952 654.814 45.784C654.394 45.616 654.016 45.382 653.68 45.082C653.164 45.694 652.468 46 651.592 46H650.404C650.284 46 650.224 45.94 650.224 45.82V43.462C650.224 43.342 650.284 43.282 650.404 43.282H651.592C651.82 43.282 652.012 43.204 652.168 43.048C652.336 42.88 652.42 42.676 652.42 42.436V40.924H651.304V38.35H656.164ZM656.164 43.318C656.512 43.318 656.8 43.204 657.028 42.976C657.256 42.736 657.37 42.442 657.37 42.094C657.37 41.758 657.256 41.482 657.028 41.266C656.8 41.038 656.512 40.924 656.164 40.924H654.976V42.094C654.976 42.442 655.084 42.736 655.3 42.976C655.528 43.204 655.816 43.318 656.164 43.318Z" fill="white"/>
<path d="M-18.4941 5.24809L6.28506 -17.4307C5.59874 -17.3063 4.92669 -17.1558 4.25467 -16.9923L-18.0152 3.38981C-18.1939 4.00488 -18.3583 4.61994 -18.4941 5.24809Z" fill="#F6F6F6" fill-opacity="0.4"/>
<path d="M-19.123 11.0126C-19.123 11.0715 -19.123 11.1369 -19.123 11.1958L12.7839 -18C12.7196 -18 12.6481 -18 12.5838 -18C12.1191 -18 11.6615 -17.9869 11.2111 -17.9738L-19.0873 9.75628C-19.1088 10.175 -19.123 10.5938 -19.123 11.0126Z" fill="#F6F6F6" fill-opacity="0.4"/>
<path d="M-18.6296 16.1293L18.1675 -17.5485C17.7242 -17.6205 17.2738 -17.6859 16.8306 -17.7383L-18.8369 14.9058C-18.7797 15.3114 -18.7082 15.7237 -18.6296 16.1293Z" fill="#F6F6F6" fill-opacity="0.4"/>
<path d="M-17.429 20.402L22.8354 -16.4493C22.4493 -16.5736 22.0561 -16.6849 21.6629 -16.7896L-17.8008 19.3289C-17.6792 19.6888 -17.5577 20.0487 -17.429 20.402Z" fill="#F6F6F6" fill-opacity="0.4"/>
<path d="M-15.677 24.1774L26.9681 -14.8528C26.625 -15.0099 26.2747 -15.1669 25.9243 -15.3174L-16.1846 23.2221C-16.0201 23.5427 -15.8557 23.8633 -15.677 24.1774Z" fill="#F6F6F6" fill-opacity="0.4"/>
<path d="M-13.4747 27.5406L30.6431 -12.8375C30.3357 -13.0338 30.0283 -13.2235 29.7138 -13.4067L-14.0967 26.69C-13.8965 26.9779 -13.6892 27.2593 -13.4747 27.5406Z" fill="#F6F6F6" fill-opacity="0.4"/>
<path d="M-10.8726 30.5374L33.9101 -10.4492C33.6384 -10.6717 33.3667 -10.8942 33.0879 -11.1101L-11.5947 29.7849C-11.3588 30.0336 -11.1157 30.2888 -10.8726 30.5374Z" fill="#F6F6F6" fill-opacity="0.4"/>
<path d="M-7.87774 33.1744L36.7978 -7.71413C36.5618 -7.96932 36.3188 -8.2245 36.0757 -8.47314L-8.70703 32.5135C-8.43536 32.736 -8.16371 32.9584 -7.87774 33.1744Z" fill="#F6F6F6" fill-opacity="0.4"/>
<path d="M-4.50323 35.458L39.2929 -4.6257C39.0927 -4.9136 38.8854 -5.19496 38.6709 -5.47632L-5.43262 34.8953C-5.1252 35.085 -4.81779 35.2748 -4.50323 35.458Z" fill="#F6F6F6" fill-opacity="0.4"/>
<path d="M-0.706898 37.3622L41.3663 -1.14454C41.2018 -1.46516 41.0374 -1.78578 40.8587 -2.09985L-1.75781 36.9042C-1.4075 37.0612 -1.05721 37.2117 -0.706898 37.3622Z" fill="#F6F6F6" fill-opacity="0.4"/>
<path d="M3.56113 38.8342L42.982 2.75497C42.8676 2.39509 42.7389 2.03522 42.6102 1.68188L2.38867 38.494C2.77473 38.6183 3.16793 38.7295 3.56113 38.8342Z" fill="#F6F6F6" fill-opacity="0.4"/>
<path d="M8.40849 39.7765L44.0116 7.1913C43.9544 6.77908 43.8829 6.36686 43.8043 5.96118L7.06445 39.5867C7.5077 39.6587 7.95809 39.7241 8.40849 39.7765Z" fill="#F6F6F6" fill-opacity="0.4"/>
<path d="M12.5835 40.0318C13.0768 40.0318 13.5629 40.0187 14.0419 39.9991L44.2473 12.354C44.2688 11.9091 44.2831 11.4641 44.2831 11.0192C44.2831 10.9799 44.2831 10.9472 44.2831 10.908L12.4619 40.0318C12.4977 40.0252 12.5406 40.0318 12.5835 40.0318Z" fill="#F6F6F6" fill-opacity="0.4"/>
<path d="M21.02 38.9847L43.1468 18.7335C43.3327 18.1184 43.4971 17.4968 43.6401 16.8687L18.9824 39.4362C19.6687 39.3053 20.3479 39.1548 21.02 38.9847Z" fill="#F6F6F6" fill-opacity="0.4"/>
<path d="M40.0083 25.5647L28.4766 36.1189C33.2522 33.5801 37.2344 29.9356 40.0083 25.5647Z" fill="#F6F6F6" fill-opacity="0.4"/>
<path d="M237.07 51.1938L255.83 34.0239C252.5 35.7658 249.407 37.8498 246.609 40.2138L243.833 42.754C241.251 45.315 238.974 48.1455 237.07 51.1938Z" fill="#F6F6F6" fill-opacity="0.4"/>
<path d="M231.473 64.8385L270.737 28.9021C269.65 29.0991 268.585 29.3376 267.52 29.5968L232.232 61.8939C231.948 62.8685 231.688 63.8431 231.473 64.8385Z" fill="#F6F6F6" fill-opacity="0.4"/>
<path d="M230.477 73.9728C230.477 74.0662 230.477 74.1698 230.477 74.2631L281.036 28C280.934 28 280.821 28 280.719 28C279.982 28 279.257 28.0207 278.544 28.0415L230.533 71.9821C230.499 72.6457 230.477 73.3093 230.477 73.9728Z" fill="#F6F6F6" fill-opacity="0.4"/>
<path d="M231.258 82.0809L289.566 28.7155C288.864 28.6014 288.15 28.4977 287.448 28.4148L230.93 80.142C231.02 80.7848 231.134 81.438 231.258 82.0809Z" fill="#F6F6F6" fill-opacity="0.4"/>
<path d="M233.161 88.8514L296.964 30.4574C296.352 30.2604 295.729 30.0841 295.106 29.9182L232.572 87.151C232.765 87.7212 232.957 88.2915 233.161 88.8514Z" fill="#F6F6F6" fill-opacity="0.4"/>
<path d="M235.937 94.8338L303.512 32.9871C302.968 32.7383 302.413 32.4894 301.858 32.251L235.133 93.32C235.393 93.828 235.654 94.3361 235.937 94.8338Z" fill="#F6F6F6" fill-opacity="0.4"/>
<path d="M239.427 100.163L309.335 36.1806C308.848 35.8696 308.361 35.5689 307.863 35.2786L238.441 98.8152C238.759 99.2714 239.087 99.7173 239.427 100.163Z" fill="#F6F6F6" fill-opacity="0.4"/>
<path d="M243.55 104.912L314.512 39.9649C314.082 39.6124 313.651 39.2599 313.21 38.9177L242.406 103.719C242.78 104.113 243.165 104.518 243.55 104.912Z" fill="#F6F6F6" fill-opacity="0.4"/>
<path d="M248.297 109.09L319.089 44.2989C318.715 43.8945 318.33 43.4902 317.944 43.0962L246.982 108.043C247.413 108.395 247.843 108.748 248.297 109.09Z" fill="#F6F6F6" fill-opacity="0.4"/>
<path d="M253.643 112.709L323.041 49.1928C322.724 48.7366 322.396 48.2908 322.056 47.845L252.17 111.817C252.657 112.118 253.144 112.418 253.643 112.709Z" fill="#F6F6F6" fill-opacity="0.4"/>
<path d="M259.659 115.726L326.328 54.7086C326.067 54.2005 325.807 53.6925 325.524 53.1948L257.994 115C258.549 115.249 259.104 115.487 259.659 115.726Z" fill="#F6F6F6" fill-opacity="0.4"/>
<path d="M266.422 118.059L328.888 60.8881C328.707 60.3179 328.503 59.7476 328.299 59.1877L264.564 117.52C265.176 117.717 265.799 117.893 266.422 118.059Z" fill="#F6F6F6" fill-opacity="0.4"/>
<path d="M274.102 119.552L330.519 67.9177C330.428 67.2645 330.315 66.6113 330.19 65.9685L271.973 119.251C272.675 119.365 273.389 119.469 274.102 119.552Z" fill="#F6F6F6" fill-opacity="0.4"/>
<path d="M280.718 119.956C281.5 119.956 282.27 119.936 283.029 119.904L330.892 76.0985C330.926 75.3935 330.949 74.6884 330.949 73.9834C330.949 73.9212 330.949 73.8693 330.949 73.8071L280.525 119.956C280.582 119.946 280.65 119.956 280.718 119.956Z" fill="#F6F6F6" fill-opacity="0.4"/>
<path d="M904.464 0.851372L968.266 -57.5426C967.655 -57.7396 967.032 -57.9159 966.409 -58.0818L903.875 -0.849022C904.068 -0.278767 904.26 0.291489 904.464 0.851372Z" fill="#F6F6F6" fill-opacity="0.4"/>
<path d="M907.24 6.83377L974.815 -55.0129C974.271 -55.2617 973.716 -55.5106 973.161 -55.749L906.436 5.32C906.696 5.82805 906.957 6.33609 907.24 6.83377Z" fill="#F6F6F6" fill-opacity="0.4"/>
<path d="M910.73 12.1631L980.638 -51.8194C980.151 -52.1304 979.664 -52.4311 979.165 -52.7214L909.744 10.8152C910.061 11.2714 910.39 11.7173 910.73 12.1631Z" fill="#F6F6F6" fill-opacity="0.4"/>
<path d="M914.853 16.9117L985.815 -48.0351C985.385 -48.3876 984.954 -48.7401 984.512 -49.0823L913.709 15.7193C914.083 16.1133 914.468 16.5177 914.853 16.9117Z" fill="#F6F6F6" fill-opacity="0.4"/>
<path d="M919.599 21.0901L990.391 -43.7011C990.017 -44.1055 989.632 -44.5098 989.247 -44.9038L918.285 20.0429C918.716 20.3955 919.146 20.748 919.599 21.0901Z" fill="#F6F6F6" fill-opacity="0.4"/>
<path d="M924.945 24.7088L994.344 -38.8072C994.027 -39.2634 993.698 -39.7092 993.358 -40.155L923.473 23.8171C923.96 24.1178 924.447 24.4185 924.945 24.7088Z" fill="#F6F6F6" fill-opacity="0.4"/>
<path d="M930.962 27.7258L997.631 -33.2914C997.37 -33.7995 997.11 -34.3075 996.826 -34.8052L929.297 27C929.852 27.2488 930.407 27.4873 930.962 27.7258Z" fill="#F6F6F6" fill-opacity="0.4"/>
<path d="M937.725 30.0587L1000.19 -27.1119C1000.01 -27.6821 999.805 -28.2524 999.602 -28.8123L935.867 29.5195C936.479 29.7165 937.102 29.8928 937.725 30.0587Z" fill="#F6F6F6" fill-opacity="0.4"/>
<path d="M945.405 31.5517L1001.82 -20.0823C1001.73 -20.7355 1001.62 -21.3887 1001.49 -22.0315L943.275 31.251C943.978 31.365 944.691 31.4687 945.405 31.5517Z" fill="#F6F6F6" fill-opacity="0.4"/>
<path d="M952.021 31.9562C952.802 31.9562 953.573 31.9355 954.332 31.9044L1002.19 -11.9015C1002.23 -12.6065 1002.25 -13.3116 1002.25 -14.0166C1002.25 -14.0788 1002.25 -14.1307 1002.25 -14.1929L951.828 31.9562C951.885 31.9459 951.953 31.9562 952.021 31.9562Z" fill="#F6F6F6" fill-opacity="0.4"/>
<path d="M965.389 30.2971L1000.45 -1.79261C1000.75 -2.76722 1001.01 -3.75221 1001.23 -4.74756L962.16 31.0126C963.248 30.8052 964.324 30.5667 965.389 30.2971Z" fill="#F6F6F6" fill-opacity="0.4"/>
<path d="M995.478 9.03198L977.205 25.756C984.773 21.7331 991.083 15.958 995.478 9.03198Z" fill="#F6F6F6" fill-opacity="0.4"/>
<path d="M1189.09 42.3412L1197.45 34.6858C1195.97 35.4624 1194.59 36.3916 1193.34 37.4456L1192.11 38.5782C1190.95 39.7201 1189.94 40.9821 1189.09 42.3412Z" fill="#F6F6F6" fill-opacity="0.4"/>
<path d="M1186.6 48.4249L1204.1 32.4021C1203.62 32.4899 1203.14 32.5963 1202.67 32.7118L1186.93 47.112C1186.81 47.5465 1186.69 47.9811 1186.6 48.4249Z" fill="#F6F6F6" fill-opacity="0.4"/>
<path d="M1186.15 52.4977C1186.15 52.5393 1186.15 52.5855 1186.15 52.6271L1208.69 32C1208.65 32 1208.6 32 1208.55 32C1208.22 32 1207.9 32.0092 1207.58 32.0185L1186.18 51.6101C1186.16 51.906 1186.15 52.2018 1186.15 52.4977Z" fill="#F6F6F6" fill-opacity="0.4"/>
<path d="M1186.5 56.1126L1212.5 32.3189C1212.18 32.268 1211.86 32.2218 1211.55 32.1848L1186.35 55.2482C1186.39 55.5348 1186.44 55.826 1186.5 56.1126Z" fill="#F6F6F6" fill-opacity="0.4"/>
<path d="M1187.35 59.1315L1215.79 33.0956C1215.52 33.0078 1215.24 32.9292 1214.97 32.8552L1187.08 58.3733C1187.17 58.6276 1187.26 58.8818 1187.35 59.1315Z" fill="#F6F6F6" fill-opacity="0.4"/>
<path d="M1188.59 61.7987L1218.71 34.2235C1218.47 34.1125 1218.22 34.0016 1217.98 33.8953L1188.23 61.1238C1188.34 61.3503 1188.46 61.5769 1188.59 61.7987Z" fill="#F6F6F6" fill-opacity="0.4"/>
<path d="M1190.14 64.1751L1221.31 35.6475C1221.09 35.5089 1220.88 35.3748 1220.65 35.2454L1189.7 63.5741C1189.84 63.7776 1189.99 63.9763 1190.14 64.1751Z" fill="#F6F6F6" fill-opacity="0.4"/>
<path d="M1191.98 66.2923L1223.62 37.3348C1223.43 37.1777 1223.23 37.0205 1223.04 36.8679L1191.47 65.7607C1191.64 65.9364 1191.81 66.1167 1191.98 66.2923Z" fill="#F6F6F6" fill-opacity="0.4"/>
<path d="M1194.1 68.1554L1225.66 39.2672C1225.49 39.0869 1225.32 38.9066 1225.15 38.731L1193.51 67.6884C1193.7 67.8456 1193.89 68.0028 1194.1 68.1554Z" fill="#F6F6F6" fill-opacity="0.4"/>
<path d="M1196.48 69.7687L1227.42 41.4491C1227.28 41.2457 1227.13 41.0469 1226.98 40.8481L1195.82 69.3711C1196.04 69.5051 1196.26 69.6392 1196.48 69.7687Z" fill="#F6F6F6" fill-opacity="0.4"/>
<path d="M1199.16 71.114L1228.89 43.9086C1228.77 43.6821 1228.66 43.4555 1228.53 43.2336L1198.42 70.7904C1198.67 70.9014 1198.91 71.0077 1199.16 71.114Z" fill="#F6F6F6" fill-opacity="0.4"/>
<path d="M1202.18 72.154L1230.03 46.6637C1229.95 46.4094 1229.86 46.1552 1229.77 45.9055L1201.35 71.9136C1201.62 72.0015 1201.9 72.0801 1202.18 72.154Z" fill="#F6F6F6" fill-opacity="0.4"/>
<path d="M1205.6 72.8198L1230.76 49.7981C1230.72 49.5068 1230.66 49.2156 1230.61 48.929L1204.65 72.6857C1204.97 72.7366 1205.28 72.7828 1205.6 72.8198Z" fill="#F6F6F6" fill-opacity="0.4"/>
<path d="M1208.55 73.0001C1208.9 73.0001 1209.24 72.9909 1209.58 72.977L1230.92 53.4455C1230.94 53.1311 1230.95 52.8168 1230.95 52.5024C1230.95 52.4747 1230.95 52.4516 1230.95 52.4238L1208.47 73.0001C1208.49 72.9955 1208.52 73.0001 1208.55 73.0001Z" fill="#F6F6F6" fill-opacity="0.4"/>
<path d="M1214.51 72.2605L1230.14 57.9528C1230.28 57.5182 1230.39 57.079 1230.49 56.6353L1213.07 72.5794C1213.56 72.487 1214.04 72.3807 1214.51 72.2605Z" fill="#F6F6F6" fill-opacity="0.4"/>
<path d="M1227.93 62.7791L1219.78 70.2357C1223.15 68.442 1225.97 65.8671 1227.93 62.7791Z" fill="#F6F6F6" fill-opacity="0.4"/>
</g>
<defs>
<clipPath id="clip0_4535_4409">
<rect width="1248" height="80" rx="8" fill="white"/>
</clipPath>
</defs>
</svg>
