<svg width="68" height="11" viewBox="0 0 68 11" fill="none" xmlns="http://www.w3.org/2000/svg">
<path d="M5.81109 1.54348C5.87335 1.36437 6.12665 1.36437 6.18891 1.54348L7.12988 4.25051C7.15734 4.32952 7.23108 4.3831 7.31471 4.3848L10.18 4.44319C10.3696 4.44706 10.4479 4.68796 10.2968 4.80253L8.01302 6.53395C7.94636 6.58449 7.91819 6.67118 7.94241 6.75124L8.77231 9.49436C8.82722 9.67586 8.62229 9.82475 8.46664 9.71644L6.11424 8.07949C6.04557 8.03171 5.95443 8.03171 5.88576 8.07949L3.53336 9.71644C3.37771 9.82475 3.17278 9.67586 3.22769 9.49436L4.05759 6.75124C4.08181 6.67118 4.05364 6.58449 3.98698 6.53395L1.70322 4.80253C1.55211 4.68797 1.63039 4.44706 1.81997 4.44319L4.68529 4.3848C4.76892 4.3831 4.84266 4.32952 4.87012 4.25051L5.81109 1.54348Z" fill="#269200" stroke="#269200" stroke-width="2"/>
<path d="M19.8111 1.54348C19.8733 1.36437 20.1267 1.36437 20.1889 1.54348L21.1299 4.25051C21.1573 4.32952 21.2311 4.3831 21.3147 4.3848L24.18 4.44319C24.3696 4.44706 24.4479 4.68796 24.2968 4.80253L22.013 6.53395C21.9464 6.58449 21.9182 6.67118 21.9424 6.75124L22.7723 9.49436C22.8272 9.67586 22.6223 9.82475 22.4666 9.71644L20.1142 8.07949C20.0456 8.03171 19.9544 8.03171 19.8858 8.07949L17.5334 9.71644C17.3777 9.82475 17.1728 9.67586 17.2277 9.49436L18.0576 6.75124C18.0818 6.67118 18.0536 6.58449 17.987 6.53395L15.7032 4.80253C15.5521 4.68797 15.6304 4.44706 15.82 4.44319L18.6853 4.3848C18.7689 4.3831 18.8427 4.32952 18.8701 4.25051L19.8111 1.54348Z" fill="#269200" stroke="#269200" stroke-width="2"/>
<path d="M33.8111 1.54348C33.8733 1.36437 34.1267 1.36437 34.1889 1.54348L35.1299 4.25051C35.1573 4.32952 35.2311 4.3831 35.3147 4.3848L38.18 4.44319C38.3696 4.44706 38.4479 4.68796 38.2968 4.80253L36.013 6.53395C35.9464 6.58449 35.9182 6.67118 35.9424 6.75124L36.7723 9.49436C36.8272 9.67586 36.6223 9.82475 36.4666 9.71644L34.1142 8.07949C34.0456 8.03171 33.9544 8.03171 33.8858 8.07949L31.5334 9.71644C31.3777 9.82475 31.1728 9.67586 31.2277 9.49436L32.0576 6.75124C32.0818 6.67118 32.0536 6.58449 31.987 6.53395L29.7032 4.80253C29.5521 4.68797 29.6304 4.44706 29.82 4.44319L32.6853 4.3848C32.7689 4.3831 32.8427 4.32952 32.8701 4.25051L33.8111 1.54348Z" fill="#269200" stroke="#269200" stroke-width="2"/>
<path d="M47.8111 1.54348C47.8733 1.36437 48.1267 1.36437 48.1889 1.54348L49.1299 4.25051C49.1573 4.32952 49.2311 4.3831 49.3147 4.3848L52.18 4.44319C52.3696 4.44706 52.4479 4.68796 52.2968 4.80253L50.013 6.53395C49.9464 6.58449 49.9182 6.67118 49.9424 6.75124L50.7723 9.49436C50.8272 9.67586 50.6223 9.82475 50.4666 9.71644L48.1142 8.07949C48.0456 8.03171 47.9544 8.03171 47.8858 8.07949L45.5334 9.71644C45.3777 9.82475 45.1728 9.67586 45.2277 9.49436L46.0576 6.75124C46.0818 6.67118 46.0536 6.58449 45.987 6.53395L43.7032 4.80253C43.5521 4.68797 43.6304 4.44706 43.82 4.44319L46.6853 4.3848C46.7689 4.3831 46.8427 4.32952 46.8701 4.25051L47.8111 1.54348Z" fill="#269200" stroke="#269200" stroke-width="2"/>
<path d="M61.8111 1.54348C61.8733 1.36437 62.1267 1.36437 62.1889 1.54348L63.1299 4.25051C63.1573 4.32952 63.2311 4.3831 63.3147 4.3848L66.18 4.44319C66.3696 4.44706 66.4479 4.68796 66.2968 4.80253L64.013 6.53395C63.9464 6.58449 63.9182 6.67118 63.9424 6.75124L64.7723 9.49436C64.8272 9.67586 64.6223 9.82475 64.4666 9.71644L62.1142 8.07949C62.0456 8.03171 61.9544 8.03171 61.8858 8.07949L59.5334 9.71644C59.3777 9.82475 59.1728 9.67586 59.2277 9.49436L60.0576 6.75124C60.0818 6.67118 60.0536 6.58449 59.987 6.53395L57.7032 4.80253C57.5521 4.68797 57.6304 4.44706 57.82 4.44319L60.6853 4.3848C60.7689 4.3831 60.8427 4.32952 60.8701 4.25051L61.8111 1.54348Z" fill="#269200" stroke="#269200" stroke-width="2"/>
</svg>
