<svg width="15" height="16" viewBox="0 0 15 16" fill="none" xmlns="http://www.w3.org/2000/svg">
<path d="M2.44275 13.7419L2.87053 13.1259L2.44275 13.7419ZM1.66844 13.0019L2.26552 12.548L1.66844 13.0019ZM12.9316 13.0019L12.3345 12.548L12.9316 13.0019ZM12.1572 13.7419L12.585 14.358L12.1572 13.7419ZM12.1572 2.97696L12.585 2.36092L12.1572 2.97696ZM12.9316 3.71702L12.3345 4.1709L12.9316 3.71702ZM2.44275 2.97696L2.87053 3.59299L2.44275 2.97696ZM1.66844 3.71702L2.26552 4.1709H2.26552L1.66844 3.71702ZM12.3525 10.4077L12.2402 9.6662L12.3525 10.4077ZM9.44309 13.1885L8.70318 13.0658L9.44309 13.1885ZM5.2 8.27848C4.78579 8.27848 4.45 8.61427 4.45 9.02848C4.45 9.4427 4.78579 9.77848 5.2 9.77848V8.27848ZM9.4 9.77848C9.81421 9.77848 10.15 9.4427 10.15 9.02848C10.15 8.61427 9.81421 8.27848 9.4 8.27848V9.77848ZM8.65 3.00712C8.65 3.42133 8.98579 3.75712 9.4 3.75712C9.81421 3.75712 10.15 3.42133 10.15 3.00712H8.65ZM10.15 1C10.15 0.585786 9.81421 0.25 9.4 0.25C8.98579 0.25 8.65 0.585786 8.65 1H10.15ZM4.45 3.00712C4.45 3.42133 4.78579 3.75712 5.2 3.75712C5.61421 3.75712 5.95 3.42133 5.95 3.00712H4.45ZM5.95 1C5.95 0.585786 5.61421 0.25 5.2 0.25C4.78579 0.25 4.45 0.585786 4.45 1H5.95ZM13.5798 10.3666L14.3293 10.3934L13.5798 10.3666ZM1.02025 6.35232L0.270731 6.32545L1.02025 6.35232ZM13.5798 6.35232L14.3293 6.32545L13.5798 6.35232ZM7.3 13.6308C5.97161 13.6308 5.03293 13.6299 4.30933 13.5549C3.59787 13.4813 3.18295 13.3428 2.87053 13.1259L2.01497 14.358C2.62258 14.7799 3.32388 14.9609 4.15483 15.047C4.97365 15.1317 6.00357 15.1308 7.3 15.1308V13.6308ZM0.25 8.35944C0.25 9.59634 0.248874 10.587 0.338328 11.3761C0.42961 12.1814 0.622836 12.8657 1.07137 13.4557L2.26552 12.548C2.0456 12.2587 1.90461 11.8761 1.82878 11.2072C1.75113 10.5221 1.75 9.63127 1.75 8.35944H0.25ZM2.87053 13.1259C2.63706 12.9638 2.43314 12.7685 2.26552 12.548L1.07137 13.4557C1.3355 13.8032 1.65418 14.1074 2.01497 14.358L2.87053 13.1259ZM12.3345 12.548C12.1669 12.7685 11.9629 12.9638 11.7295 13.1259L12.585 14.358C12.9458 14.1074 13.2645 13.8032 13.5286 13.4557L12.3345 12.548ZM11.7295 3.59299C11.9629 3.75512 12.1669 3.95039 12.3345 4.1709L13.5286 3.26315C13.2645 2.91568 12.9458 2.61146 12.585 2.36092L11.7295 3.59299ZM2.01497 2.36092C1.65418 2.61146 1.3355 2.91568 1.07137 3.26315L2.26552 4.1709C2.43314 3.95039 2.63706 3.75512 2.87053 3.59299L2.01497 2.36092ZM12.2402 9.6662C10.4407 9.93861 8.99661 11.2952 8.70318 13.0658L10.183 13.3111C10.364 12.219 11.269 11.3303 12.4647 11.1493L12.2402 9.6662ZM5.2 9.77848H9.4V8.27848H5.2V9.77848ZM13.5797 9.61656C12.9692 9.61657 12.5791 9.6149 12.2402 9.6662L12.4647 11.1493C12.6643 11.1191 12.9166 11.1166 13.5798 11.1166L13.5797 9.61656ZM12.85 8.35944C12.85 9.14584 12.8499 9.79109 12.8302 10.3397L14.3293 10.3934C14.3501 9.81223 14.35 9.13716 14.35 8.35944H12.85ZM12.8302 10.3397C12.786 11.5749 12.6411 12.1446 12.3345 12.548L13.5286 13.4557C14.1421 12.6487 14.2841 11.6527 14.3293 10.3934L12.8302 10.3397ZM10.15 14.3615C10.15 13.7241 10.1529 13.4924 10.183 13.3111L8.70318 13.0658C8.64795 13.3991 8.65 13.7815 8.65 14.3614L10.15 14.3615ZM7.3 15.1308C8.11428 15.1308 8.81861 15.1309 9.42455 15.111L9.37545 13.6119C8.7993 13.6307 8.12221 13.6308 7.3 13.6308V15.1308ZM9.42455 15.111C10.7363 15.0681 11.7559 14.9338 12.585 14.358L11.7295 13.1259C11.2922 13.4295 10.6736 13.5693 9.37545 13.6119L9.42455 15.111ZM1.75 8.35944C1.75 7.57304 1.7501 6.92779 1.76977 6.37919L0.270731 6.32545C0.249897 6.90665 0.25 7.58173 0.25 8.35944H1.75ZM1.76977 6.37919C1.81405 5.14403 1.95886 4.57431 2.26552 4.1709L1.07137 3.26315C0.457896 4.07017 0.315872 5.06619 0.270731 6.32545L1.76977 6.37919ZM1.02025 7.10232H13.5798V5.60232H1.02025V7.10232ZM14.35 8.35944C14.35 7.58173 14.3501 6.90665 14.3293 6.32545L12.8302 6.37919C12.8499 6.92779 12.85 7.57304 12.85 8.35944H14.35ZM14.3293 6.32545C14.2841 5.06619 14.1421 4.07017 13.5286 3.26315L12.3345 4.1709C12.6411 4.57431 12.786 5.14403 12.8302 6.37919L14.3293 6.32545ZM10.15 3.00712V2.35743H8.65V3.00712H10.15ZM10.15 2.35743V1H8.65V2.35743H10.15ZM7.3 3.08808C8.12222 3.08808 8.7993 3.08817 9.37545 3.10703L9.42455 1.60784C8.81861 1.58799 8.11428 1.58808 7.3 1.58808V3.08808ZM9.37545 3.10703C10.6736 3.14954 11.2922 3.28935 11.7295 3.59299L12.585 2.36092C11.7559 1.78514 10.7363 1.65079 9.42455 1.60784L9.37545 3.10703ZM5.95 3.00712V2.35743H4.45V3.00712H5.95ZM5.95 2.35743V1H4.45V2.35743H5.95ZM7.3 1.58808C6.48572 1.58808 5.78139 1.58799 5.17545 1.60784L5.22455 3.10703C5.8007 3.08817 6.47778 3.08808 7.3 3.08808V1.58808ZM5.17545 1.60784C3.86373 1.65079 2.84414 1.78514 2.01497 2.36092L2.87053 3.59299C3.30781 3.28935 3.92641 3.14954 5.22455 3.10703L5.17545 1.60784Z" fill="#4A4A4A"/>
</svg>
