<svg width="24" height="24" viewBox="0 0 24 24" fill="none" xmlns="http://www.w3.org/2000/svg">
<path d="M12.0229 24H11.9701C5.36985 24 0 18.6286 0 12.0264V11.9736C0 5.37143 5.36985 0 11.9701 0H12.0229C18.6231 0 23.9929 5.37143 23.9929 11.9736V12.0264C23.9929 18.6286 18.6231 24 12.0229 24ZM11.9701 0.812375C5.81733 0.812375 0.812136 5.81905 0.812136 11.9736V12.0264C0.812136 18.181 5.81733 23.1876 11.9701 23.1876H12.0229C18.1756 23.1876 23.1808 18.181 23.1808 12.0264V11.9736C23.1808 5.81905 18.1756 0.812375 12.0229 0.812375H11.9701Z" fill="#00E510"/>
<path d="M14.2562 15.3912C11.2895 15.3912 8.87584 12.976 8.87503 10.0084C8.87584 9.25618 9.4882 8.64447 10.2386 8.64447C10.3158 8.64447 10.3921 8.65097 10.4652 8.66397C10.626 8.69077 10.7787 8.7452 10.9192 8.82725C10.9395 8.83944 10.9533 8.85893 10.9565 8.88168L11.27 10.8582C11.2741 10.8809 11.2668 10.9045 11.2513 10.9216C11.0784 11.1133 10.8575 11.2514 10.6114 11.3204L10.4928 11.3537L10.5375 11.4683C10.9419 12.4984 11.7654 13.3213 12.796 13.7275L12.9105 13.773L12.9438 13.6544C13.0129 13.4082 13.1509 13.1873 13.3426 13.0142C13.3564 13.0012 13.3751 12.9947 13.3938 12.9947C13.3978 12.9947 13.4019 12.9947 13.4068 12.9955L15.3827 13.3091C15.4062 13.3132 15.4257 13.3262 15.4379 13.3465C15.5191 13.487 15.5735 13.6406 15.6011 13.8014C15.6141 13.8729 15.6198 13.9485 15.6198 14.0273C15.6198 14.7787 15.0083 15.3904 14.2562 15.3912Z" fill="#00E510"/>
<path d="M19.5172 11.3489C19.3573 9.54054 18.5289 7.86299 17.1848 6.62574C15.8326 5.38118 14.0784 4.69553 12.2438 4.69553C8.21718 4.69553 4.94103 7.97266 4.94103 12.0004C4.94103 13.3522 5.31379 14.6691 6.01954 15.8161L4.44562 19.3012L9.48493 18.7643C10.3612 19.1233 11.2887 19.3053 12.2429 19.3053C12.4939 19.3053 12.7513 19.2923 13.0096 19.2655C13.237 19.2411 13.4668 19.2054 13.6926 19.1599C17.0646 18.4783 19.5262 15.4847 19.5457 12.0394V12.0004C19.5457 11.7811 19.5359 11.5617 19.5164 11.3497L19.5172 11.3489ZM9.67903 17.2346L6.89097 17.5319L7.72341 15.687L7.55692 15.4636C7.54473 15.4473 7.53255 15.4311 7.51875 15.4124C6.79595 14.414 6.41424 13.2344 6.41424 12.0012C6.41424 8.78585 9.02932 6.17 12.2438 6.17C15.2552 6.17 17.8077 8.5202 18.0538 11.5203C18.0668 11.6812 18.0741 11.8428 18.0741 12.002C18.0741 12.0475 18.0733 12.0922 18.0725 12.1401C18.0107 14.8299 16.1323 17.1143 13.5042 17.696C13.3036 17.7407 13.0981 17.7748 12.8935 17.7967C12.6807 17.8211 12.4622 17.8333 12.2454 17.8333C11.473 17.8333 10.7226 17.6838 10.0136 17.3881C9.93485 17.3564 9.85769 17.3223 9.78541 17.2874L9.67984 17.2362L9.67903 17.2346Z" fill="#00E510"/>
</svg>
