<svg width="20" height="22" viewBox="0 0 20 22" fill="none" xmlns="http://www.w3.org/2000/svg">
<path fill-rule="evenodd" clip-rule="evenodd" d="M4.77129 3.04167C4.77129 1.49987 6.02116 0.25 7.56296 0.25H12.729C14.1097 0.25 15.229 1.36929 15.229 2.75C15.229 3.30228 15.6767 3.75 16.229 3.75H16.8183C18.4032 3.75 19.7971 4.97999 19.7325 6.66561C19.6497 8.82667 19.23 12.2931 17.5466 15.3608C17.0903 16.1923 16.4809 17.0092 15.8222 17.7703L15.7726 17.8276C14.8249 18.9226 14.0348 19.8356 13.1853 20.4579C12.2716 21.1273 11.2964 21.4607 10.0001 21.4607C8.70384 21.4607 7.72865 21.1273 6.81497 20.4579C5.9655 19.8356 5.17534 18.9226 4.22767 17.8276L4.17807 17.7703C3.51931 17.0092 2.90992 16.1923 2.45363 15.3608C0.824473 12.3918 0.37782 9.25749 0.276296 7.24648C0.190789 5.55273 1.59471 4.33333 3.17076 4.33333H3.47963C4.19299 4.33333 4.77129 3.75503 4.77129 3.04167ZM13.5841 9.47057C13.844 9.14804 13.7932 8.67589 13.4706 8.416C13.1481 8.15611 12.6759 8.20689 12.4161 8.52943L10.3946 11.0382C9.97948 11.5533 9.71757 11.8755 9.49961 12.0791C9.39718 12.1747 9.33175 12.2173 9.29415 12.2361C9.26616 12.2501 9.25616 12.25 9.25079 12.25H9.24934C9.24397 12.25 9.23396 12.2501 9.20597 12.2361C9.16837 12.2173 9.10294 12.1747 9.00051 12.0791C8.78255 11.8755 8.52064 11.5533 8.10557 11.0382L7.58407 10.391C7.32418 10.0685 6.85203 10.0177 6.52949 10.2776C6.20695 10.5375 6.15617 11.0096 6.41606 11.3321L6.97013 12.0198C7.34264 12.4822 7.67129 12.8901 7.97671 13.1753C8.30462 13.4816 8.71232 13.75 9.25006 13.75C9.7878 13.75 10.1955 13.4816 10.5234 13.1753C10.8288 12.8901 11.1575 12.4822 11.53 12.0198L13.5841 9.47057Z" fill="#0974A2"/>
</svg>
