<svg width="16" height="18" viewBox="0 0 16 18" fill="none" xmlns="http://www.w3.org/2000/svg">
<path fill-rule="evenodd" clip-rule="evenodd" d="M13.213 11.2205L13.4317 9.64966C13.4989 9.16634 13.5604 8.7245 13.6151 8.31919C13.7274 7.48627 13.7836 7.06981 13.5345 6.78495C13.2855 6.50008 12.8575 6.50008 12.0015 6.50008H3.99986C3.14384 6.50008 2.71583 6.50008 2.4668 6.78495C2.21777 7.06981 2.27393 7.48627 2.38625 8.31919C2.44093 8.72462 2.50237 9.16616 2.56966 9.64965L2.78827 11.2205C3.02587 12.9278 3.14467 13.7814 3.39656 14.467C3.8676 15.7491 4.68185 16.704 5.6537 17.1141C6.1734 17.3334 6.7825 17.3334 8.00066 17.3334C9.21882 17.3334 9.82792 17.3334 10.3476 17.1141C11.3195 16.704 12.1337 15.7491 12.6048 14.467C12.8567 13.7814 12.9754 12.9278 13.213 11.2205ZM6.95898 8.16675C6.95898 7.82157 6.67916 7.54175 6.33398 7.54175C5.98881 7.54175 5.70898 7.82157 5.70898 8.16675V14.8334C5.70898 15.1786 5.98881 15.4584 6.33398 15.4584C6.67916 15.4584 6.95898 15.1786 6.95898 14.8334V8.16675ZM10.2923 8.16675C10.2923 7.82157 10.0125 7.54175 9.66732 7.54175C9.32214 7.54175 9.04232 7.82157 9.04232 8.16675V14.8334C9.04232 15.1786 9.32214 15.4584 9.66732 15.4584C10.0125 15.4584 10.2923 15.1786 10.2923 14.8334V8.16675Z" fill="#5D5E58"/>
<path d="M8.00065 0.041748C5.81452 0.041748 4.04232 1.81395 4.04232 4.00008V4.20841H1.33398C0.988806 4.20841 0.708984 4.48824 0.708984 4.83341C0.708984 5.17859 0.988806 5.45841 1.33398 5.45841H14.6673C15.0125 5.45841 15.2923 5.17859 15.2923 4.83341C15.2923 4.48824 15.0125 4.20841 14.6673 4.20841H11.959V4.00008C11.959 1.81395 10.1868 0.041748 8.00065 0.041748Z" fill="#5D5E58"/>
</svg>
