<svg width="14" height="7" viewBox="0 0 14 7" fill="none" xmlns="http://www.w3.org/2000/svg">
<path d="M0.26455 1.55577C-0.0904199 1.19762 -0.0878411 0.61952 0.270311 0.264549C0.628465 -0.0904222 1.20657 -0.0878429 1.56154 0.27031L3.68869 2.41653C4.55199 3.28757 5.14613 3.88507 5.64955 4.28936C6.13857 4.68209 6.45268 4.81682 6.73399 4.85268C6.91063 4.87519 7.08937 4.87519 7.266 4.85268C7.54732 4.81682 7.86142 4.68209 8.35044 4.28937C8.85387 3.88507 9.44801 3.28757 10.3113 2.41654L12.4385 0.270312C12.7934 -0.087841 13.3715 -0.0904201 13.7297 0.264551C14.0878 0.619523 14.0904 1.19762 13.7354 1.55578L11.57 3.74066C10.7544 4.56359 10.0878 5.23617 9.49387 5.71315C8.87626 6.20915 8.24938 6.5682 7.49689 6.66411C7.16695 6.70617 6.83305 6.70617 6.50311 6.66411C5.75062 6.5682 5.12374 6.20915 4.50612 5.71315C3.91219 5.23617 3.24562 4.56359 2.43004 3.74067L0.26455 1.55577Z" fill="#4A4A4A"/>
</svg>
