<svg width="20" height="21" viewBox="0 0 20 21" fill="none" xmlns="http://www.w3.org/2000/svg">
<path fill-rule="evenodd" clip-rule="evenodd" d="M20 10.9592C20 16.4821 15.5228 20.9592 10 20.9592C4.47715 20.9592 0 16.4821 0 10.9592C0 5.43638 4.47715 0.959229 10 0.959229C15.5228 0.959229 20 5.43638 20 10.9592ZM11.5585 6.62061C10.5866 5.32466 8.55909 5.65367 8.04682 7.19048L7.71151 8.1964C7.58053 8.58936 7.15579 8.80173 6.76283 8.67074C6.36987 8.53976 6.1575 8.11502 6.28849 7.72206L6.62379 6.71614C7.5187 4.03143 11.0606 3.45666 12.7585 5.72061C13.7532 7.04678 13.6838 8.88815 12.5922 10.1357L11.673 11.1862C11.078 11.8662 10.75 12.7391 10.75 13.6426V13.9592C10.75 14.3734 10.4142 14.7092 10 14.7092C9.58579 14.7092 9.25 14.3734 9.25 13.9592V13.6426C9.25 12.3757 9.70984 11.1519 10.5441 10.1985L11.4633 9.14795C12.0882 8.43381 12.1279 7.37975 11.5585 6.62061ZM10 17.9592C10.5523 17.9592 11 17.5115 11 16.9592C11 16.4069 10.5523 15.9592 10 15.9592C9.44771 15.9592 9 16.4069 9 16.9592C9 17.5115 9.44771 17.9592 10 17.9592Z" fill="#0974A2"/>
</svg>
