<svg width="24" height="18" viewBox="0 0 24 18" fill="none" xmlns="http://www.w3.org/2000/svg">
<path d="M7.73306 5.75186C7.81155 5.74306 7.9809 5.7581 8.38358 5.95606C8.78108 6.15147 9.2894 6.46335 10.028 6.91788C10.7662 7.37221 11.2742 7.68578 11.6325 7.95561C11.9909 8.22553 12.1044 8.38429 12.1487 8.49039C12.2838 8.81382 12.2838 9.18618 12.1487 9.50961C12.1044 9.61571 11.9909 9.77448 11.6325 10.0444C11.2742 10.3142 10.7662 10.6278 10.028 11.0821C9.2894 11.5366 8.78108 11.8485 8.38358 12.0439C7.9809 12.2419 7.81155 12.2569 7.73306 12.2481C7.44154 12.2155 7.16131 12.0508 6.97155 11.7724C6.90747 11.6784 6.83227 11.4862 6.79121 11.0092C6.75066 10.538 6.75 9.90676 6.75 9C6.75 8.09324 6.75066 7.46196 6.79121 6.9908C6.83227 6.51375 6.90747 6.32161 6.97155 6.22759C7.16131 5.94918 7.44154 5.78452 7.73306 5.75186Z" fill="#0974A2"/>
<path fill-rule="evenodd" clip-rule="evenodd" d="M9.03356 0.25H8.96644C7.59473 0.249996 6.51928 0.249992 5.65494 0.320612C4.7748 0.392522 4.04769 0.541379 3.38955 0.876713C2.30762 1.42798 1.42798 2.30762 0.876713 3.38955C0.541379 4.04769 0.392522 4.7748 0.320612 5.65494C0.249992 6.51928 0.249996 7.59472 0.25 8.96643V9.03356C0.249996 10.4053 0.249992 11.4807 0.320612 12.3451C0.392522 13.2252 0.541379 13.9523 0.876713 14.6104C1.42798 15.6924 2.30762 16.572 3.38955 17.1233C4.04769 17.4586 4.77479 17.6075 5.65494 17.6794C6.51921 17.75 7.59454 17.75 8.96608 17.75H9.03358C10.4051 17.75 11.4808 17.75 12.3451 17.6794C13.2252 17.6075 13.9523 17.4586 14.6104 17.1233C15.6924 16.572 16.572 15.6924 17.1233 14.6104C17.1733 14.5123 17.2192 14.4125 17.2613 14.3109C18.428 14.8206 19.3834 15.2344 20.159 15.4448C20.9839 15.6686 21.7874 15.7147 22.5057 15.2446C23.2241 14.7746 23.5036 14.0198 23.6288 13.1743C23.7501 12.3556 23.75 11.2757 23.75 9.95018V8.04982C23.75 6.72426 23.7501 5.64436 23.6288 4.82567C23.5036 3.98019 23.2241 3.2254 22.5057 2.75537C21.7874 2.28534 20.9839 2.33144 20.159 2.55522C19.3834 2.76561 18.428 3.17938 17.2613 3.68909C17.2192 3.58748 17.1733 3.48774 17.1233 3.38955C16.572 2.30762 15.6924 1.42798 14.6104 0.876713C13.9523 0.541379 13.2252 0.392522 12.3451 0.320612C11.4807 0.249992 10.4053 0.249996 9.03356 0.25ZM10.7807 5.61986C10.0837 5.19089 9.51459 4.84061 9.04534 4.60993C8.5738 4.37812 8.08281 4.20329 7.56605 4.26118C6.81915 4.34486 6.15604 4.76076 5.73207 5.38278C5.44434 5.80493 5.34363 6.31731 5.29674 6.86218C5.24998 7.40543 5.24999 8.10168 5.25 8.96407V9.03592C5.24999 9.89831 5.24998 10.5946 5.29674 11.1378C5.34363 11.6827 5.44434 12.1951 5.73207 12.6172C6.15604 13.2392 6.81915 13.6551 7.56605 13.7388C8.08281 13.7967 8.5738 13.6219 9.04534 13.3901C9.51459 13.1594 10.0837 12.8091 10.7807 12.3802L10.8468 12.3395C11.5445 11.9101 12.1134 11.56 12.5349 11.2426C12.9627 10.9204 13.3337 10.5645 13.5328 10.0877C13.8224 9.39437 13.8224 8.60563 13.5328 7.91227C13.3337 7.43552 12.9627 7.07963 12.5349 6.7574C12.1134 6.44001 11.5445 6.08987 10.8468 5.6605L10.7807 5.61986Z" fill="#0974A2"/>
</svg>
