<svg width="12" height="15" viewBox="0 0 12 15" fill="none" xmlns="http://www.w3.org/2000/svg">
<path d="M1.37405 3.3032C1.79646 2.9963 2.30572 2.83735 3 2.75503V3.33325C3 3.88554 3.44772 4.33325 4 4.33325C4.55229 4.33325 5 3.88554 5 3.33325V2.66846C5.3094 2.66659 5.64187 2.66659 6 2.66659C6.35813 2.66659 6.6906 2.66659 7 2.66846V3.33325C7 3.88554 7.44772 4.33325 8 4.33325C8.55229 4.33325 9 3.88554 9 3.33325V2.75503C9.69428 2.83735 10.2035 2.9963 10.626 3.3032C10.9089 3.50879 11.1578 3.75765 11.3634 4.04063C11.7396 4.55847 11.8935 5.20684 11.9564 6.16659H0.0435574C0.106496 5.20684 0.260377 4.55847 0.63661 4.04063C0.842209 3.75765 1.09107 3.50879 1.37405 3.3032Z" fill="#0974A2"/>
<path fill-rule="evenodd" clip-rule="evenodd" d="M0.00713202 7.16644C0 7.61045 0 8.10723 0 8.66659C0 11.1664 0 12.4163 0.63661 13.2925C0.842209 13.5755 1.09107 13.8244 1.37405 14.03C2.25027 14.6666 3.50018 14.6666 6 14.6666C6.5593 14.6666 7.05602 14.6666 7.5 14.6595L7.5 14.6127C7.49995 14.0447 7.49993 13.6987 7.54719 13.4003C7.80699 11.76 9.09341 10.4736 10.7337 10.2138C11.0321 10.1665 11.3781 10.1665 11.9461 10.1666L11.9929 10.1666C12 9.72261 12 9.22588 12 8.66659C12 8.10723 12 7.61045 11.9929 7.16644L11.9806 7.16659H0.0192057L0.00713202 7.16644ZM4 8.83325C3.72386 8.83325 3.5 9.05711 3.5 9.33325C3.5 9.60939 3.72386 9.83325 4 9.83325H8C8.27614 9.83325 8.5 9.60939 8.5 9.33325C8.5 9.05711 8.27614 8.83325 8 8.83325H4Z" fill="#0974A2"/>
<path d="M10.626 14.03C10.1081 14.4062 9.45975 14.5601 8.5 14.623C8.50009 14.0161 8.50232 13.7623 8.53488 13.5567C8.7269 12.3443 9.67774 11.3935 10.8901 11.2015C11.0957 11.1689 11.3496 11.1667 11.9564 11.1666C11.8935 12.1263 11.7396 12.7747 11.3634 13.2925C11.1578 13.5755 10.9089 13.8244 10.626 14.03Z" fill="#0974A2"/>
<path d="M4.5 1.33325C4.5 1.05711 4.27614 0.833252 4 0.833252C3.72386 0.833252 3.5 1.05711 3.5 1.33325V3.33325C3.5 3.60939 3.72386 3.83325 4 3.83325C4.27614 3.83325 4.5 3.60939 4.5 3.33325V1.33325Z" fill="#0974A2"/>
<path d="M8.5 1.33325C8.5 1.05711 8.27614 0.833252 8 0.833252C7.72386 0.833252 7.5 1.05711 7.5 1.33325V3.33325C7.5 3.60939 7.72386 3.83325 8 3.83325C8.27614 3.83325 8.5 3.60939 8.5 3.33325V1.33325Z" fill="#0974A2"/>
</svg>
