<svg width="19" height="21" viewBox="0 0 19 21" fill="none" xmlns="http://www.w3.org/2000/svg">
<path fill-rule="evenodd" clip-rule="evenodd" d="M4.56058 3.13266C3.51075 3.25614 2.74069 3.49457 2.10195 3.95492C1.67405 4.26331 1.29775 4.6366 0.986859 5.06107C0.024231 6.3754 0.024231 8.25027 0.024231 12C0.024231 15.7497 0.024231 17.6246 0.986859 18.9389C1.29775 19.3634 1.67405 19.7367 2.10195 20.0451C3.4269 21 5.31691 21 9.09693 21C9.94265 21 10.6938 21 11.3651 20.9893L11.3651 20.9192C11.365 20.0672 11.365 19.5482 11.4365 19.1005C11.8293 16.6401 13.7745 14.7105 16.2548 14.3208C16.7061 14.2499 17.2293 14.2499 18.0882 14.25L18.1588 14.25C18.1696 13.5842 18.1696 12.8392 18.1696 12.0005C18.1696 8.25073 18.1696 6.3754 17.207 5.06107C16.8961 4.6366 16.5198 4.26331 16.0919 3.95492C15.4532 3.49457 14.6831 3.25614 13.6333 3.13266V4C13.6333 4.82843 12.9563 5.5 12.1212 5.5C11.286 5.5 10.609 4.82843 10.609 4V3.00281C10.1412 3 9.63846 3 9.09693 3C8.5554 3 8.05266 3 7.58481 3.00281V4C7.58481 4.82843 6.90781 5.5 6.0727 5.5C5.23758 5.5 4.56058 4.82843 4.56058 4V3.13266ZM4.05654 9C4.61329 9 5.06462 8.55228 5.06462 8C5.06462 7.44772 4.61329 7 4.05654 7C3.4998 7 3.04846 7.44772 3.04846 8C3.04846 8.55228 3.4998 9 4.05654 9ZM5.06462 12C5.06462 12.5523 4.61329 13 4.05654 13C3.4998 13 3.04846 12.5523 3.04846 12C3.04846 11.4477 3.4998 11 4.05654 11C4.61329 11 5.06462 11.4477 5.06462 12ZM9.09693 9C9.65368 9 10.105 8.55228 10.105 8C10.105 7.44772 9.65368 7 9.09693 7C8.54018 7 8.08885 7.44772 8.08885 8C8.08885 8.55228 8.54018 9 9.09693 9ZM10.105 12C10.105 12.5523 9.65368 13 9.09693 13C8.54018 13 8.08885 12.5523 8.08885 12C8.08885 11.4477 8.54018 11 9.09693 11C9.65368 11 10.105 11.4477 10.105 12ZM9.09693 17C9.65368 17 10.105 16.5523 10.105 16C10.105 15.4477 9.65368 15 9.09693 15C8.54018 15 8.08885 15.4477 8.08885 16C8.08885 16.5523 8.54018 17 9.09693 17ZM15.1454 8C15.1454 8.55228 14.6941 9 14.1373 9C13.5806 9 13.1292 8.55228 13.1292 8C13.1292 7.44772 13.5806 7 14.1373 7C14.6941 7 15.1454 7.44772 15.1454 8ZM14.1373 13C14.6941 13 15.1454 12.5523 15.1454 12C15.1454 11.4477 14.6941 11 14.1373 11C13.5806 11 13.1292 11.4477 13.1292 12C13.1292 12.5523 13.5806 13 14.1373 13ZM5.06462 16C5.06462 16.5523 4.61329 17 4.05654 17C3.4998 17 3.04846 16.5523 3.04846 16C3.04846 15.4477 3.4998 15 4.05654 15C4.61329 15 5.06462 15.4477 5.06462 16Z" fill="#0974A2"/>
<path d="M18.1038 15.75C17.1861 15.7501 16.8022 15.7535 16.4913 15.8023C14.6581 16.0904 13.2203 17.5166 12.93 19.3352C12.8807 19.6435 12.8774 20.0243 12.8772 20.9347C14.3285 20.8403 15.3089 20.6094 16.0919 20.0451C16.5198 19.7367 16.8961 19.3634 17.207 18.9389C17.7759 18.1622 18.0086 17.1896 18.1038 15.75Z" fill="#0974A2"/>
<path d="M6.82875 1C6.82875 0.585786 6.49026 0.25 6.0727 0.25C5.65514 0.25 5.31664 0.585786 5.31664 1V4C5.31664 4.41421 5.65514 4.75 6.0727 4.75C6.49026 4.75 6.82875 4.41421 6.82875 4V1Z" fill="#0974A2"/>
<path d="M12.8772 1C12.8772 0.585786 12.5387 0.25 12.1212 0.25C11.7036 0.25 11.3651 0.585786 11.3651 1V4C11.3651 4.41421 11.7036 4.75 12.1212 4.75C12.5387 4.75 12.8772 4.41421 12.8772 4V1Z" fill="#0974A2"/>
</svg>
