<svg width="20" height="22" viewBox="0 0 20 22" fill="none" xmlns="http://www.w3.org/2000/svg">
<path d="M8.48066 3.43236C10.0685 0.682172 13.5851 -0.260108 16.3353 1.32771C19.0855 2.91553 20.0278 6.43217 18.44 9.18236L18.3318 9.36966C19.6141 11.4997 19.8316 14.1859 18.7523 16.5681C18.595 16.9152 18.375 17.2962 17.9944 17.9554L17.9553 18.0232C17.9098 18.102 17.8627 18.1839 17.8117 18.255C17.3254 18.9336 16.4274 19.1742 15.667 18.8297C15.5873 18.7936 15.5056 18.7463 15.4268 18.7008L9.23553 15.1262L5.61053 21.4049C5.40343 21.7636 4.94473 21.8865 4.58601 21.6794C4.22729 21.4723 4.10439 21.0136 4.31149 20.6549L7.93649 14.3762L1.74522 10.8017C1.66642 10.7563 1.58461 10.7091 1.51347 10.6582C0.834845 10.1719 0.594238 9.2739 0.938798 8.51344C0.974915 8.43372 1.02219 8.35199 1.06772 8.27326L1.10686 8.2055C1.48747 7.54621 1.70744 7.1652 1.9294 6.85545C3.45245 4.73003 5.88686 3.57535 8.37215 3.6203L8.48066 3.43236Z" fill="#0974A2"/>
</svg>
