<svg width="24" height="24" viewBox="0 0 24 24" fill="none" xmlns="http://www.w3.org/2000/svg">
<path d="M11.9965 24C5.38135 24 0 18.6171 0 12C0 5.38293 5.38135 0 11.9965 0C18.6116 0 23.9929 5.38293 23.9929 12C23.9929 18.6171 18.6116 24 11.9965 24ZM11.9965 0.814609C5.83089 0.814609 0.814369 5.83259 0.814369 12C0.814369 18.1674 5.83089 23.1854 11.9965 23.1854C18.1621 23.1854 23.1786 18.1674 23.1786 12C23.1786 5.83259 18.1621 0.814609 11.9965 0.814609Z" fill="#FF0209"/>
<path d="M19.294 9.59771C19.2028 8.71711 19.0066 7.74365 18.2842 7.23208C17.7248 6.83536 16.9894 6.82071 16.3029 6.82152C14.8517 6.82234 13.3996 6.82396 11.9484 6.82477C10.5526 6.8264 9.15677 6.82722 7.76094 6.82885C7.17785 6.82967 6.61105 6.78404 6.0695 7.03657C5.60449 7.25326 5.24047 7.66546 5.0214 8.12408C4.71764 8.76192 4.65413 9.48448 4.61748 10.1899C4.54989 11.4746 4.55722 12.7625 4.63784 14.0463C4.69729 14.9831 4.84794 16.0185 5.57192 16.6156C6.21364 17.1442 7.11922 17.1703 7.9515 17.1711C10.5933 17.1736 13.2359 17.176 15.8786 17.1776C16.2174 17.1785 16.5708 17.1719 16.9161 17.1345C17.5953 17.0612 18.2427 16.8665 18.6792 16.363C19.1198 15.8555 19.233 15.1493 19.2997 14.4805C19.4626 12.8578 19.461 11.2196 19.294 9.59771ZM10.4207 14.2744V9.72478L14.359 11.9992L10.4207 14.2744Z" fill="#FF0209"/>
</svg>
