<svg width="26" height="24" viewBox="0 0 26 24" fill="none" xmlns="http://www.w3.org/2000/svg">
<path fill-rule="evenodd" clip-rule="evenodd" d="M4.11431 8.8421C6.9862 3.86784 8.42215 1.3807 10.2969 0.546028C11.9321 -0.182009 13.7994 -0.182009 15.4346 0.546028C17.3093 1.3807 18.7452 3.86784 21.6171 8.8421C24.489 13.8164 25.925 16.3035 25.7105 18.3444C25.5234 20.1245 24.5897 21.7417 23.1416 22.7938C21.4814 24 18.6095 24 12.8657 24C7.12193 24 4.25003 24 2.58983 22.7938C1.14173 21.7417 0.20807 20.1245 0.0209684 18.3444C-0.193538 16.3035 1.24241 13.8164 4.11431 8.8421ZM12.8656 5.36842C13.3889 5.36842 13.813 5.79257 13.813 6.31579V13.8947C13.813 14.418 13.3889 14.8421 12.8656 14.8421C12.3424 14.8421 11.9183 14.418 11.9183 13.8947V6.31579C11.9183 5.79257 12.3424 5.36842 12.8656 5.36842ZM12.8656 18.9474C13.5633 18.9474 14.1288 18.3818 14.1288 17.6842C14.1288 16.9866 13.5633 16.4211 12.8656 16.4211C12.168 16.4211 11.6025 16.9866 11.6025 17.6842C11.6025 18.3818 12.168 18.9474 12.8656 18.9474Z" fill="#070707"/>
</svg>
