<svg width="24" height="24" viewBox="0 0 24 24" fill="none" xmlns="http://www.w3.org/2000/svg">
<path d="M12.0229 24H11.9701C5.36984 24 0 18.6286 0 12.0264V11.9736C0 5.37143 5.36984 0 11.9701 0H12.0229C18.6231 0 23.9929 5.37143 23.9929 11.9736V12.0264C23.9929 18.6286 18.6231 24 12.0229 24ZM11.9701 0.812375C5.81732 0.812375 0.812136 5.81905 0.812136 11.9736V12.0264C0.812136 18.181 5.81732 23.1876 11.9701 23.1876H12.0229C18.1756 23.1876 23.1808 18.181 23.1808 12.0264V11.9736C23.1808 5.81905 18.1756 0.812375 12.0229 0.812375H11.9701Z" fill="#00B0F2"/>
<path d="M4.79645 11.6048C4.82893 11.5885 4.86143 11.5731 4.8931 11.5585C5.44373 11.3034 6.00167 11.0646 6.5588 10.8257C6.58885 10.8257 6.63919 10.7908 6.66761 10.7794C6.71065 10.7607 6.7537 10.7429 6.79675 10.7242C6.87958 10.6884 6.96243 10.6535 7.04445 10.6178C7.21013 10.5471 7.37498 10.4764 7.54066 10.4057C7.8712 10.2644 8.20173 10.123 8.53227 9.98086C9.19335 9.69815 9.85526 9.41464 10.5163 9.13193C11.1774 8.84922 11.8393 8.5657 12.5004 8.28299C13.1615 8.00028 13.8233 7.71677 14.4844 7.43406C15.1455 7.15136 15.8074 6.86783 16.4685 6.58512C16.6155 6.52176 16.7747 6.42753 16.9322 6.39991C17.0646 6.37635 17.1937 6.33086 17.3269 6.30567C17.5795 6.25774 17.858 6.23824 18.1001 6.34304C18.1837 6.37959 18.2609 6.43077 18.325 6.49495C18.632 6.79878 18.589 7.29758 18.524 7.72489C18.0716 10.7031 17.6193 13.682 17.1661 16.6602C17.1044 17.0688 17.0199 17.5173 16.6975 17.7756C16.4246 17.9941 16.0364 18.0185 15.6994 17.9259C15.3623 17.8325 15.0651 17.6367 14.7735 17.4441C13.5643 16.6431 12.3542 15.8421 11.1449 15.0411C10.8574 14.8511 10.5375 14.6025 10.5407 14.2572C10.5423 14.0492 10.6666 13.864 10.7933 13.6991C11.8442 12.3278 13.3604 11.3854 14.4885 10.0775C14.6477 9.89312 14.7727 9.56005 14.5543 9.45363C14.4243 9.39026 14.2749 9.47638 14.1563 9.55843C12.6652 10.5942 11.175 11.6308 9.6839 12.6666C9.19743 13.0045 8.6874 13.3522 8.10104 13.4351C7.5764 13.5098 7.04852 13.3636 6.54093 13.2141C6.11537 13.089 5.69061 12.9607 5.26749 12.8282C5.04253 12.7584 4.81025 12.6828 4.63646 12.5244C4.46266 12.366 4.36278 12.0995 4.46755 11.8883C4.53333 11.7559 4.66084 11.6722 4.79484 11.604L4.79645 11.6048Z" fill="#00B0F2"/>
</svg>
